<?xml version="1.0" encoding="utf-8"?>
<!-- Generator: Adobe Illustrator 23.0.5, SVG Export Plug-In . SVG Version: 6.00 Build 0)  -->
<svg version="1.1" id="Layer_1" xmlns="http://www.w3.org/2000/svg" xmlns:xlink="http://www.w3.org/1999/xlink" x="0px" y="0px"
	 viewBox="0 0 15 15" style="enable-background:new 0 0 15 15;" xml:space="preserve">
<style type="text/css">
	.st0{fill:none;}
	.st1{clip-path:url(#SVGID_2_);}
	.st2{fill:#6C7991;}
</style>
<g id="activities-icon" transform="translate(-35 -357)">
	<rect id="Rectangle_5" x="35" y="357" class="st0" width="15" height="15"/>
	<g>
		<defs>
			<rect id="SVGID_1_" x="35" y="357" width="15" height="15"/>
		</defs>
		<clipPath id="SVGID_2_">
			<use xlink:href="#SVGID_1_"  style="overflow:visible;"/>
		</clipPath>
		<g id="Group_33" transform="translate(35 358.462)" class="st1">
			<path id="Path_52" class="st2" d="M0,6h1.4c0-0.2,0-0.5,0.1-0.7C1.6,3.5,2.5,1.8,4,0.7C5.3-0.3,7-0.9,8.7-0.7
				c3.1,0.3,5.6,2.5,6.2,5.5c0.6,3.3-1.4,6.6-4.6,7.6c-2.4,0.8-5.1,0.2-6.8-1.6c-0.3-0.3-0.3-0.7,0-1s0.7-0.3,1,0
				c0.8,0.8,1.8,1.3,2.9,1.5c1.8,0.3,3.6-0.3,4.8-1.6c2-2.2,1.9-5.6-0.3-7.6c-0.5-0.5-1.2-0.9-1.9-1.1c-2.8-1-5.9,0.4-6.9,3.1
				C3,4.4,2.9,4.7,2.8,5C2.8,5.3,2.7,5.7,2.7,6h1.4C3.3,6.9,2.7,7.8,2,8.7L1.8,8.5C1.3,7.7,0,6,0,6z"/>
			<path id="Path_53" class="st2" d="M8.2,6.8h2c0.4,0,0.7,0.2,0.7,0.6c0,0,0,0,0,0c0,0.4-0.3,0.7-0.6,0.7c0,0-0.1,0-0.1,0H7.6
				c-0.4,0-0.7-0.2-0.8-0.6c0,0,0-0.1,0-0.1V3.4c0-0.3,0.1-0.5,0.4-0.6c0.2-0.1,0.5-0.1,0.7,0.1C8.1,3,8.2,3.2,8.2,3.4
				C8.2,3.4,8.2,6.8,8.2,6.8z"/>
		</g>
	</g>
</g>
</svg>
