<svg xmlns="http://www.w3.org/2000/svg" width="15" height="15" viewBox="0 0 15 15">
  <g id="Group_24" data-name="Group 24" transform="translate(-35 -187)">
    <rect id="Rectangle_5" data-name="Rectangle 5" width="15" height="15" transform="translate(35 187)" fill="none" opacity="0.62"/>
    <path id="Path_27" data-name="Path 27" d="M9.428,2.231A2.817,2.817,0,0,1,10.7,4.317a2.136,2.136,0,0,0,.93.214,2.233,2.233,0,0,0,2.2-2.265,2.2,2.2,0,1,0-4.4-.034ZM7.987,6.87a2.234,2.234,0,0,0,2.2-2.266,2.2,2.2,0,1,0-4.4,0A2.234,2.234,0,0,0,7.987,6.87Zm.933.154H7.053a2.863,2.863,0,0,0-2.817,2.9v2.351l.006.037.157.051A12.488,12.488,0,0,0,8.23,13a7.668,7.668,0,0,0,3.344-.647l.147-.077h.016V9.925A2.862,2.862,0,0,0,8.92,7.024Zm3.64-2.339H10.708a2.831,2.831,0,0,1-.837,1.945,3.435,3.435,0,0,1,2.391,3.3v.725a7.407,7.407,0,0,0,2.952-.639l.147-.077h.016V7.586A2.863,2.863,0,0,0,12.56,4.686ZM4.127,4.531a2.139,2.139,0,0,0,1.17-.35A2.821,2.821,0,0,1,6.32,2.393c0-.042.006-.084.006-.127A2.233,2.233,0,0,0,4.127,0a2.233,2.233,0,0,0-2.2,2.266A2.233,2.233,0,0,0,4.127,4.531ZM6.1,6.631A2.832,2.832,0,0,1,5.266,4.7c-.069-.005-.137-.011-.207-.011H3.193a2.863,2.863,0,0,0-2.817,2.9V9.938l.006.036.157.051a12.865,12.865,0,0,0,3.172.614v-.71A3.435,3.435,0,0,1,6.1,6.631Z" transform="translate(34.624 188)" fill="#6c7991"/>
  </g>
</svg>
