<svg id="Group_313" data-name="Group 313" xmlns="http://www.w3.org/2000/svg" width="16" height="16" viewBox="0 0 16 16">
  <g id="Group_187" data-name="Group 187" transform="translate(1.9)">
    <path id="Path_156" data-name="Path 156" d="M11.657,7.246a.367.367,0,0,0-.367.367v6.934a.367.367,0,0,0,.734,0V7.613A.367.367,0,0,0,11.657,7.246Z" transform="translate(-3.261 -1.571)" fill="#e93231"/>
    <path id="Path_157" data-name="Path 157" d="M6.131,7.246a.367.367,0,0,0-.367.367v6.934a.367.367,0,0,0,.734,0V7.613A.367.367,0,0,0,6.131,7.246Z" transform="translate(-1.994 -1.571)" fill="#e93231"/>
    <path id="Path_158" data-name="Path 158" d="M1.9,4.664V13.7a2.041,2.041,0,0,0,.53,1.4,1.767,1.767,0,0,0,1.291.567h6.837a1.767,1.767,0,0,0,1.291-.567,2.041,2.041,0,0,0,.53-1.4V4.664a1.4,1.4,0,0,0-.354-2.756h-1.85V1.449A1.453,1.453,0,0,0,9.758.421,1.409,1.409,0,0,0,8.744,0H5.535A1.409,1.409,0,0,0,4.521.421,1.453,1.453,0,0,0,4.1,1.449v.459H2.254A1.4,1.4,0,0,0,1.9,4.664Zm8.658,10.268H3.721a1.155,1.155,0,0,1-1.1-1.229V4.7h9.034V13.7A1.155,1.155,0,0,1,10.558,14.931ZM4.827,1.449a.712.712,0,0,1,.205-.51.691.691,0,0,1,.5-.206H8.744a.691.691,0,0,1,.5.206.711.711,0,0,1,.205.51v.459H4.827ZM2.254,2.641h9.771a.66.66,0,0,1,0,1.321H2.254a.66.66,0,0,1,0-1.321Z" transform="translate(-0.874 0)" fill="#e93231"/>
    <path id="Path_159" data-name="Path 159" d="M8.894,7.246a.367.367,0,0,0-.367.367v6.934a.367.367,0,0,0,.734,0V7.613A.367.367,0,0,0,8.894,7.246Z" transform="translate(-2.628 -1.571)" fill="#e93231"/>
  </g>
  <rect id="Rectangle_59" data-name="Rectangle 59" width="16" height="16" fill="none"/>
</svg>
