<svg xmlns="http://www.w3.org/2000/svg" width="15" height="15" viewBox="0 0 15 15">
  <g id="home-icon" transform="translate(-35 -119)">
    <rect id="Rectangle_5" data-name="Rectangle 5" width="15" height="15" transform="translate(35 119)" fill="none" opacity="0.62"/>
    <path id="Path_23" data-name="Path 23" d="M14.853,7.335a.507.507,0,0,1-.71,0l-6.281-6.2a.517.517,0,0,0-.724,0L.857,7.335a.507.507,0,0,1-.71,0,.491.491,0,0,1,0-.7L6.428.437a1.532,1.532,0,0,1,2.144,0l6.281,6.2A.491.491,0,0,1,14.853,7.335ZM7.492,2.355a.682.682,0,0,0-.465.18L1.387,8.076V13.89A1.168,1.168,0,0,0,2.569,15H4.934V9.25a.776.776,0,0,1,.786-.721H9.279a.68.68,0,0,1,.675.721V15h2.477a1.071,1.071,0,0,0,1.07-1.11V8.076L7.914,2.535A.582.582,0,0,0,7.492,2.355Z" transform="translate(35 119)" fill="#e93231"/>
  </g>
</svg>
