<svg xmlns="http://www.w3.org/2000/svg" width="15" height="15" viewBox="0 0 15 15">
  <g id="Group_36" data-name="Group 36" transform="translate(-35 -391)">
    <rect id="Rectangle_5" data-name="Rectangle 5" width="15" height="15" transform="translate(35 391)" fill="none" opacity="0.62"/>
    <g id="Group_35" data-name="Group 35" transform="translate(35 391)">
      <path id="Path_54" data-name="Path 54" d="M12.843,13.143c-.571.5-1.214,1-1.786,1.5l-.143.143a.61.61,0,0,1-.929,0c-.643-.5-1.214-1.071-1.786-1.571l-.071-.071a9.048,9.048,0,0,1-.929.786c-.357.286-.643.571-1,.857a.675.675,0,0,1-1.143-.5V2.786A2.81,2.81,0,0,0,3.986.5,3.828,3.828,0,0,1,3.2.143.68.68,0,0,1,3.7,0h9.428a2.7,2.7,0,0,1,2.714,2.286,1.216,1.216,0,0,1,.071.5V14.214a.722.722,0,0,1-.571.786.811.811,0,0,1-.571-.214c-.571-.5-1.214-1.071-1.786-1.571C12.914,13.214,12.843,13.214,12.843,13.143ZM8.486,5.429a.675.675,0,0,0-.714.714.765.765,0,0,0,.714.714h4a.429.429,0,0,0,.286-.071A.72.72,0,0,0,13.2,6a.759.759,0,0,0-.643-.571Zm4,4.143a.66.66,0,0,0,.714-.643.675.675,0,0,0-.714-.714h-4a.644.644,0,0,0-.357.071.677.677,0,0,0-.357.786.872.872,0,0,0,.643.571C9.129,9.571,11.772,9.571,12.486,9.571Zm-.071-5.5H12.7a.589.589,0,0,0,.5-.714.583.583,0,0,0-.643-.571H8.486A.811.811,0,0,0,7.914,3a.643.643,0,0,0-.071.714c.143.286.286.429.571.429C9.057,4.071,11.772,4.071,12.414,4.071Z" transform="translate(-0.914)" fill="#6c7991"/>
      <path id="Path_55" data-name="Path 55" d="M2.714,8.7H.786A.715.715,0,0,1,0,7.914V3.057A1.356,1.356,0,0,1,1.357,1.7,1.343,1.343,0,0,1,2.714,2.986V8.7Z" transform="translate(0 -0.486)" fill="#6c7991"/>
    </g>
  </g>
</svg>
