<svg width="50" height="50" viewBox="0 0 50 50" fill="none" xmlns="http://www.w3.org/2000/svg">
<circle cx="25" cy="25" r="25" fill="#ECFAEB"/>
<path d="M13.7812 39C13.9885 39 14.1872 38.9177 14.3337 38.7712C14.4802 38.6247 14.5625 38.426 14.5625 38.2188V14.7812C14.5625 14.574 14.4802 14.3753 14.3337 14.2288C14.1872 14.0823 13.9885 14 13.7812 14C13.574 14 13.3753 14.0823 13.2288 14.2288C13.0823 14.3753 13 14.574 13 14.7812V38.2188C13 38.426 13.0823 38.6247 13.2288 38.7712C13.3753 38.9177 13.574 39 13.7812 39V39ZM16.125 36.6562C16.125 36.8635 16.2073 37.0622 16.3538 37.2087C16.5003 37.3552 16.699 37.4375 16.9062 37.4375H23.1562C23.3635 37.4375 23.5622 37.3552 23.7087 37.2087C23.8552 37.0622 23.9375 36.8635 23.9375 36.6562V35.0938C23.9375 34.8865 23.8552 34.6878 23.7087 34.5413C23.5622 34.3948 23.3635 34.3125 23.1562 34.3125H16.9062C16.699 34.3125 16.5003 34.3948 16.3538 34.5413C16.2073 34.6878 16.125 34.8865 16.125 35.0938V36.6562ZM19.25 30.4062C19.25 30.6135 19.3323 30.8122 19.4788 30.9587C19.6253 31.1052 19.824 31.1875 20.0312 31.1875H30.9688C31.176 31.1875 31.3747 31.1052 31.5212 30.9587C31.6677 30.8122 31.75 30.6135 31.75 30.4062V28.8438C31.75 28.6365 31.6677 28.4378 31.5212 28.2913C31.3747 28.1448 31.176 28.0625 30.9688 28.0625H20.0312C19.824 28.0625 19.6253 28.1448 19.4788 28.2913C19.3323 28.4378 19.25 28.6365 19.25 28.8438V30.4062ZM22.375 24.1562C22.375 24.3635 22.4573 24.5622 22.6038 24.7087C22.7503 24.8552 22.949 24.9375 23.1562 24.9375H32.5312C32.7385 24.9375 32.9372 24.8552 33.0837 24.7087C33.2302 24.5622 33.3125 24.3635 33.3125 24.1562V22.5938C33.3125 22.3865 33.2302 22.1878 33.0837 22.0413C32.9372 21.8948 32.7385 21.8125 32.5312 21.8125H23.1562C22.949 21.8125 22.7503 21.8948 22.6038 22.0413C22.4573 22.1878 22.375 22.3865 22.375 22.5938V24.1562ZM25.5 17.9062C25.5 18.1135 25.5823 18.3122 25.7288 18.4587C25.8753 18.6052 26.074 18.6875 26.2812 18.6875H37.2188C37.426 18.6875 37.6247 18.6052 37.7712 18.4587C37.9177 18.3122 38 18.1135 38 17.9062V16.3438C38 16.1365 37.9177 15.9378 37.7712 15.7913C37.6247 15.6448 37.426 15.5625 37.2188 15.5625H26.2812C26.074 15.5625 25.8753 15.6448 25.7288 15.7913C25.5823 15.9378 25.5 16.1365 25.5 16.3438V17.9062Z" fill="#48A341"/>
</svg>
