<svg xmlns="http://www.w3.org/2000/svg" width="50" height="50" viewBox="0 0 50 50">
  <g id="milestone-icon" transform="translate(-610 -155)">
    <g id="Ellipse_3" data-name="Ellipse 3" transform="translate(610 155)" fill="#fff" stroke="#dbeed9" stroke-width="3">
      <circle cx="25" cy="25" r="25" stroke="none"/>
      <circle cx="25" cy="25" r="23.5" fill="none"/>
    </g>
    <path id="Path_61" data-name="Path 61" d="M.68,23.582a.663.663,0,0,0,.481-.21.737.737,0,0,0,.2-.507V1.357a.737.737,0,0,0-.2-.507A.655.655,0,0,0,.2.85a.737.737,0,0,0-.2.507V22.866a.737.737,0,0,0,.2.507.663.663,0,0,0,.481.21Zm2.04-2.151a.737.737,0,0,0,.2.507.663.663,0,0,0,.481.21h5.44a.663.663,0,0,0,.481-.21.737.737,0,0,0,.2-.507V20a.737.737,0,0,0-.2-.507.663.663,0,0,0-.481-.21H3.4a.663.663,0,0,0-.481.21.737.737,0,0,0-.2.507ZM5.44,15.7a.737.737,0,0,0,.2.507.663.663,0,0,0,.481.21h9.52a.663.663,0,0,0,.481-.21.737.737,0,0,0,.2-.507V14.262a.737.737,0,0,0-.2-.507.663.663,0,0,0-.481-.21H6.12a.663.663,0,0,0-.481.21.737.737,0,0,0-.2.507ZM8.16,9.96a.737.737,0,0,0,.2.507.663.663,0,0,0,.481.21H17a.663.663,0,0,0,.481-.21.737.737,0,0,0,.2-.507V8.526a.737.737,0,0,0-.2-.507A.663.663,0,0,0,17,7.809H8.839a.663.663,0,0,0-.481.21.737.737,0,0,0-.2.507Zm2.72-5.736a.737.737,0,0,0,.2.507.663.663,0,0,0,.481.21h9.52a.663.663,0,0,0,.481-.21.737.737,0,0,0,.2-.507V2.791a.737.737,0,0,0-.2-.507.663.663,0,0,0-.481-.21h-9.52a.663.663,0,0,0-.481.21.737.737,0,0,0-.2.507Z" transform="translate(624 168.36)" fill="#48a341"/>
  </g>
</svg>
