<svg xmlns="http://www.w3.org/2000/svg" width="15" height="15" viewBox="0 0 15 15">
  <g id="Group_26" data-name="Group 26" transform="translate(-35 -221)">
    <rect id="Rectangle_5" data-name="Rectangle 5" width="15" height="15" transform="translate(35 221)" fill="none" opacity="0.62"/>
    <path id="Path_68" data-name="Path 68" d="M.469,15a.469.469,0,0,0,.469-.469V.469A.469.469,0,1,0,0,.469V14.531A.469.469,0,0,0,.469,15Zm1.406-1.406a.469.469,0,0,0,.469.469h3.75a.469.469,0,0,0,.469-.469v-.937a.469.469,0,0,0-.469-.469H2.344a.469.469,0,0,0-.469.469ZM3.75,9.844a.469.469,0,0,0,.469.469h6.563a.469.469,0,0,0,.469-.469V8.906a.469.469,0,0,0-.469-.469H4.219a.469.469,0,0,0-.469.469Zm1.875-3.75a.469.469,0,0,0,.469.469h5.625a.469.469,0,0,0,.469-.469V5.156a.469.469,0,0,0-.469-.469H6.094a.469.469,0,0,0-.469.469ZM7.5,2.344a.469.469,0,0,0,.469.469h6.563A.469.469,0,0,0,15,2.344V1.406a.469.469,0,0,0-.469-.469H7.969a.469.469,0,0,0-.469.469Z" transform="translate(35 221)" fill="#6c7991"/>
  </g>
</svg>
