<?xml version="1.0" encoding="utf-8"?>
<!-- Generator: Adobe Illustrator 23.0.5, SVG Export Plug-In . SVG Version: 6.00 Build 0)  -->
<svg version="1.1" id="Layer_1" xmlns="http://www.w3.org/2000/svg" xmlns:xlink="http://www.w3.org/1999/xlink" x="0px" y="0px"
	 viewBox="0 0 15 15" style="enable-background:new 0 0 15 15;" xml:space="preserve">
<style type="text/css">
	.st0{fill:none;}
	.st1{clip-path:url(#SVGID_2_);}
	.st2{fill:#6C7991;}
</style>
<g id="payment-icon" transform="translate(-35 -255)">
	<rect id="Rectangle_5" x="35" y="255" class="st0" width="15" height="15"/>
	<g>
		<defs>
			<rect id="SVGID_1_" x="35" y="255" width="15" height="15"/>
		</defs>
		<clipPath id="SVGID_2_">
			<use xlink:href="#SVGID_1_"  style="overflow:visible;"/>
		</clipPath>
		<g id="Group_27" transform="translate(35 255)" class="st1">
			<path id="Path_37" class="st2" d="M14,12.3h-2.4c-1.5,0-2.7-1.2-2.7-2.7s1.2-2.7,2.7-2.7H14c0.2,0,0.3-0.1,0.4-0.3c0,0,0,0,0,0
				V5.4c0-0.7-0.6-1.3-1.3-1.4l-2-3.4c-0.2-0.3-0.5-0.5-0.9-0.6C9.9,0,9.5,0,9.2,0.2L2.6,4.1H1.4C0.6,4.1,0,4.7,0,5.4v8.2
				C0,14.4,0.6,15,1.4,15h11.6c0.7,0,1.4-0.6,1.4-1.4c0,0,0,0,0,0v-1C14.3,12.5,14.2,12.3,14,12.3z M11.5,2.8l0.7,1.3H9.3L11.5,2.8z
				 M3.9,4.1l5.7-3.3c0.1-0.1,0.3-0.1,0.4-0.1c0.2,0.1,0.3,0.2,0.4,0.3L5.2,4.1H3.9z"/>
			<path id="Path_38" class="st2" d="M14,7.5h-2.4c-1.1,0-2.1,0.9-2.1,2.1s0.9,2.1,2.1,2.1H14c0.5,0,1-0.4,1-1c0,0,0,0,0,0V8.6
				C15,8,14.6,7.5,14,7.5C14,7.5,14,7.5,14,7.5z M11.6,10.2c-0.4,0-0.7-0.3-0.7-0.7c0-0.4,0.3-0.7,0.6-0.7c0,0,0.1,0,0.1,0
				c0.4,0,0.7,0.3,0.7,0.7C12.3,9.9,12,10.2,11.6,10.2C11.6,10.2,11.6,10.2,11.6,10.2z"/>
		</g>
	</g>
</g>
</svg>
