<svg xmlns="http://www.w3.org/2000/svg" width="50" height="50" viewBox="0 0 50 50">
  <g id="Group_43" data-name="Group 43" transform="translate(-300 -159)">
    <g id="Ellipse_2" data-name="Ellipse 2" transform="translate(300 159)" fill="#fff" stroke="#d0e5f9" stroke-width="3">
      <circle cx="25" cy="25" r="25" stroke="none"/>
      <circle cx="25" cy="25" r="23.5" fill="none"/>
    </g>
    <g id="Group_41" data-name="Group 41" transform="translate(312 173)">
      <path id="Path_59" data-name="Path 59" d="M10.5,0A2.361,2.361,0,0,0,8.787.748a2.627,2.627,0,0,0-.71,1.807v.852H2.423A2.361,2.361,0,0,0,.71,4.155,2.627,2.627,0,0,0,0,5.961V8.319l12.3,3.458a2.3,2.3,0,0,0,1.247,0l12.3-3.458V5.961a2.627,2.627,0,0,0-.71-1.807,2.362,2.362,0,0,0-1.713-.748H17.769V2.555a2.627,2.627,0,0,0-.71-1.807A2.361,2.361,0,0,0,15.346,0Zm0,1.7h4.846a.787.787,0,0,1,.571.249.876.876,0,0,1,.236.6v.852H9.692V2.555a.876.876,0,0,1,.237-.6A.787.787,0,0,1,10.5,1.7Z" fill="#0a78e3"/>
      <path id="Path_60" data-name="Path 60" d="M0,19.588a2.627,2.627,0,0,0,.71,1.807,2.362,2.362,0,0,0,1.713.748h21a2.362,2.362,0,0,0,1.713-.748,2.627,2.627,0,0,0,.71-1.807V9.964L13.132,13.536a.768.768,0,0,1-.417,0L0,9.964Z" fill="#0a78e3"/>
    </g>
  </g>
</svg>
