<svg width="50" height="50" viewBox="0 0 50 50" fill="none" xmlns="http://www.w3.org/2000/svg">
<circle cx="25" cy="25" r="25" fill="#E7F2FC"/>
<path d="M22.5 14C21.8574 14 21.241 14.2553 20.7866 14.7097C20.3322 15.1641 20.0769 15.7804 20.0769 16.4231V17.2308H14.4231C13.7804 17.2308 13.1641 17.4861 12.7097 17.9405C12.2553 18.3949 12 19.0112 12 19.6538V21.8895L24.2995 25.1688C24.7081 25.2776 25.138 25.2776 25.5466 25.1688L37.8462 21.8895V19.6538C37.8462 19.0112 37.5909 18.3949 37.1365 17.9405C36.682 17.4861 36.0657 17.2308 35.4231 17.2308H29.7692V16.4231C29.7692 15.7804 29.5139 15.1641 29.0595 14.7097C28.6051 14.2553 27.9888 14 27.3462 14H22.5ZM22.5 15.6154H27.3462C27.5604 15.6154 27.7658 15.7005 27.9173 15.852C28.0688 16.0034 28.1538 16.2089 28.1538 16.4231V17.2308H21.6923V16.4231C21.6923 16.2089 21.7774 16.0034 21.9289 15.852C22.0803 15.7005 22.2858 15.6154 22.5 15.6154Z" fill="#0A78E3"/>
<path d="M12 32.5769C12 33.2195 12.2553 33.8359 12.7097 34.2903C13.1641 34.7447 13.7804 35 14.4231 35H35.4231C36.0657 35 36.682 34.7447 37.1365 34.2903C37.5909 33.8359 37.8462 33.2195 37.8462 32.5769V23.45L25.1315 26.8374C24.9949 26.8739 24.8512 26.8739 24.7147 26.8374L12 23.45V32.5769Z" fill="#0A78E3"/>
</svg>
