<svg xmlns="http://www.w3.org/2000/svg" width="15" height="15" viewBox="0 0 15 15">
  <g id="Group_37" data-name="Group 37" transform="translate(-35 -425)">
    <rect id="Rectangle_5" data-name="Rectangle 5" width="15" height="15" transform="translate(35 425)" fill="none" opacity="0.62"/>
    <path id="Path_56" data-name="Path 56" d="M12.143,7.5V13a1.986,1.986,0,0,1-1.579,1.938c-.121,0-.3.062-.425.062H2.064A2.012,2.012,0,0,1,0,13V4.75a2.128,2.128,0,0,1,.668-1.5A37.67,37.67,0,0,0,3.521.625,2.255,2.255,0,0,1,5.161,0h4.918a2.012,2.012,0,0,1,2.064,2Zm-6.5-.375V5.875c0-.312-.182-.437-.425-.375H5.1a3.288,3.288,0,0,0-2.671,3,3.334,3.334,0,0,0,1.882,3.313A3.345,3.345,0,0,0,8.864,9.375C8.925,9,8.8,8.813,8.439,8.813H6.071c-.3,0-.425-.125-.425-.437ZM8.439,7.5H9.714c.243,0,.3-.125.243-.375,0-.062-.061-.187-.061-.25A3.206,3.206,0,0,0,7.286,4.187c-.3-.062-.486.125-.486.438V7.062c0,.313.121.438.425.438Z" transform="translate(36.429 425)" fill="#6c7991"/>
  </g>
</svg>
