<svg width="50" height="50" viewBox="0 0 50 50" fill="none" xmlns="http://www.w3.org/2000/svg">
<circle cx="25" cy="25" r="25" fill="#FFF3D0"/>
<path d="M24.408 8.69164C24.648 8.16581 25.0956 8.0175 25.4678 8.00132C26.034 7.97435 26.6273 8.36535 27.1855 8.82646C27.5819 9.27409 28.0565 9.61925 28.6066 9.86194C28.9868 9.99677 29.3643 10.0237 29.7472 10.0049C30.2865 9.9779 30.8339 9.85925 31.3759 9.83228L31.4056 9.82958L31.651 9.80801C32.2712 9.77835 32.8563 9.92396 33.4118 10.2449C33.9215 10.7087 34.1453 11.2857 34.0752 11.9814C33.9565 12.5558 34.059 13.0816 34.3799 13.5589C34.9327 13.9472 35.5124 14.287 36.1219 14.5755C36.7529 14.9207 37.1493 15.4411 37.3218 16.1341C37.3839 16.8676 37.0441 17.3368 36.3106 17.5391C35.356 17.779 34.0725 17.779 32.9912 18.615C31.411 19.9336 30.9148 21.263 30.2272 21.4652C29.8901 21.0823 27.7868 19.4563 24.2597 18.677C23.6287 16.5009 23.2458 11.248 24.408 8.69164Z" fill="#FCC21B"/>
<path d="M27.9675 18.2132C28.5877 16.9727 30.354 14.7912 30.7773 15.2227C31.1953 15.6919 30.2326 18.1296 29.5558 19.3241C29.3158 19.0707 28.5419 18.5394 28.2048 18.4505" fill="#D19B15"/>
<path d="M31.0874 22.1852C30.7234 22.1852 30.3674 21.9992 30.1652 21.6648C28.31 18.6123 24.1087 18.9332 24.0683 18.9386C23.475 18.9871 22.9519 18.5503 22.9007 17.9597C22.8756 17.6757 22.9639 17.3932 23.1462 17.174C23.3286 16.9547 23.5902 16.8165 23.8741 16.7894C24.1006 16.7678 29.4479 16.3283 32.0097 20.5484C32.3198 21.0581 32.1553 21.7214 31.6483 22.0288C31.4703 22.134 31.2789 22.1852 31.0874 22.1852Z" fill="#8D6E63"/>
<path d="M31.8586 40.1578C27.2394 41.2957 20.8189 41.2148 16.2321 40.3088C11.9391 39.4594 8.65202 36.9273 9.02954 31.944C9.41245 26.9015 12.7535 22.1528 17.3484 20.0603C21.7951 18.0352 27.7625 17.0482 30.9067 21.6432C31.6887 22.7865 33.1826 25.324 33.2527 26.5698C33.2581 26.6696 33.2635 26.7586 33.2851 26.8448C33.2905 27.1576 33.4172 27.4731 33.7246 27.705C35.7012 29.2016 37.1412 31.1863 37.4054 33.9071C37.7182 37.1511 34.6496 39.4701 31.8586 40.1578Z" fill="#FCC21B"/>
<path d="M27.7626 31.8147C27.2017 30.9032 26.1689 29.9136 25.1928 29.0642L25.9505 26.9663C26.6246 27.4921 27.2179 27.9856 27.6817 28.4116C27.7572 28.4844 27.8759 28.4898 27.9621 28.4278L29.6987 27.1361C29.7473 27.0984 29.7769 27.0445 29.785 26.9824C29.7879 26.9521 29.7843 26.9216 29.7746 26.8928C29.7648 26.864 29.7491 26.8375 29.7284 26.8152C29.2133 26.2409 28.097 25.2351 26.8754 24.4072L27.3204 23.1776C27.3716 23.0374 27.3015 22.8837 27.1586 22.8297L25.1173 22.0909C24.977 22.0396 24.8206 22.1124 24.7694 22.2527L24.4377 23.1722C22.5151 22.5763 20.9888 22.7677 19.7916 23.7681C18.8532 24.5555 18.4487 25.68 18.7345 26.6993C19.0257 27.786 19.8779 28.5303 20.9565 29.4714L21.094 29.5927C21.3448 29.8084 21.6117 30.0322 21.8733 30.2561L20.9511 32.807C19.7403 32.0142 18.7264 30.9167 18.5538 30.6767C18.5215 30.6321 18.4735 30.6015 18.4194 30.591C18.3653 30.5805 18.3093 30.5909 18.2626 30.6201L16.2618 31.8983C16.2132 31.9279 16.1782 31.9792 16.1647 32.0385C16.1539 32.0951 16.1647 32.1544 16.197 32.203C16.7984 33.109 17.7826 34.1229 18.8316 34.9157C19.0824 35.1045 19.4599 35.3687 19.9237 35.6465L19.5758 36.6038C19.5273 36.744 19.5974 36.8977 19.7376 36.9489L21.7816 37.6905C21.9218 37.7417 22.0782 37.6689 22.1295 37.5287L22.418 36.7305C24.284 37.2375 25.9235 36.9435 27.1909 35.8595C28.4152 34.8105 28.6255 33.3382 27.7626 31.8147ZM23.5317 25.6854L22.9735 27.2305C22.4531 26.826 22.1753 26.5213 22.3722 26.0845C22.5771 25.6368 23.0868 25.6072 23.5317 25.6854ZM24.0845 32.1302C24.4431 32.478 24.6966 32.7989 24.7209 33.0928C24.7317 33.26 24.6696 33.4218 24.524 33.589C24.2706 33.8829 23.8661 33.9396 23.4481 33.8883L24.0845 32.1302Z" fill="#424242"/>
</svg>
