<svg xmlns="http://www.w3.org/2000/svg" width="50" height="50" viewBox="0 0 50 50">
  <g id="Group_53" data-name="Group 53" transform="translate(-1230 -149)">
    <g id="Ellipse_5" data-name="Ellipse 5" transform="translate(1230 149)" fill="#fff" stroke="#fff4d2" stroke-width="3">
      <circle cx="25" cy="25" r="25" stroke="none"/>
      <circle cx="25" cy="25" r="23.5" fill="none"/>
    </g>
    <g id="Group_42" data-name="Group 42" transform="translate(1244 161)">
      <path id="Path_63" data-name="Path 63" d="M15.218.544A.858.858,0,0,1,16.009,0,2.043,2.043,0,0,1,17.29.65a3.052,3.052,0,0,0,1.06.815,2.067,2.067,0,0,0,.851.112c.4-.021.811-.115,1.215-.136l.022,0,.183-.017a2.255,2.255,0,0,1,1.314.344,1.589,1.589,0,0,1,.5,1.366,1.641,1.641,0,0,0,.227,1.241,8.738,8.738,0,0,0,1.3.8,1.838,1.838,0,0,1,.9,1.226A.959.959,0,0,1,24.1,7.505a5.581,5.581,0,0,0-2.477.847c-1.179,1.037-1.549,2.083-2.063,2.243A9.565,9.565,0,0,0,15.107,8.4C14.636,6.689,14.351,2.556,15.218.544Z" transform="translate(-3.72 0)" fill="#fcc21b"/>
      <path id="Path_64" data-name="Path 64" d="M18.968,9.954c.463-.976,1.781-2.692,2.1-2.353.312.369-.406,2.287-.911,3.227a3.388,3.388,0,0,0-1.008-.687" transform="translate(-4.814 -1.918)" fill="#d19b15"/>
      <path id="Path_65" data-name="Path 65" d="M20.009,13.507a.8.8,0,0,1-.688-.41c-1.384-2.4-4.519-2.149-4.55-2.145a.82.82,0,0,1-.871-.77.881.881,0,0,1,.183-.618.794.794,0,0,1,.543-.3c.169-.017,4.159-.363,6.071,2.958a.875.875,0,0,1-.27,1.165A.787.787,0,0,1,20.009,13.507Z" transform="translate(-3.527 -2.346)" fill="#8d6e63"/>
      <path id="Path_66" data-name="Path 66" d="M17.057,28.075A28.493,28.493,0,0,1,5.4,28.194c-3.2-.668-5.656-2.661-5.375-6.581a11.49,11.49,0,0,1,6.208-9.35C9.548,10.669,14,9.893,16.347,13.508A11.745,11.745,0,0,1,18.1,17.384a1.2,1.2,0,0,0,.024.216.86.86,0,0,0,.328.677,6.883,6.883,0,0,1,2.747,4.88C21.43,25.71,19.14,27.534,17.057,28.075Z" transform="translate(0 -2.773)" fill="#fcc21b"/>
      <path id="Path_67" data-name="Path 67" d="M15.818,22.5A10.574,10.574,0,0,0,13.9,20.34l.565-1.651c.5.414.946.8,1.292,1.137a.158.158,0,0,0,.209.013l1.3-1.016a.182.182,0,0,0,.064-.121.179.179,0,0,0-.008-.071.172.172,0,0,0-.034-.061,13.218,13.218,0,0,0-2.129-1.895l.332-.968a.217.217,0,0,0-.121-.274l-1.523-.581a.2.2,0,0,0-.26.127l-.248.723a3.328,3.328,0,0,0-3.467.469,2.315,2.315,0,0,0-.789,2.306,4.736,4.736,0,0,0,1.658,2.181l.1.1c.187.17.386.346.582.522l-.688,2.007a8.823,8.823,0,0,1-1.789-1.676.162.162,0,0,0-.1-.067.155.155,0,0,0-.117.023L7.236,22.57a.174.174,0,0,0-.072.11.182.182,0,0,0,.024.129,9.213,9.213,0,0,0,1.966,2.134,9.477,9.477,0,0,0,.815.575l-.26.753a.217.217,0,0,0,.121.272l1.525.583a.2.2,0,0,0,.26-.127l.215-.628a3.579,3.579,0,0,0,3.562-.685A2.453,2.453,0,0,0,15.818,22.5Zm-3.157-4.823L12.244,18.9c-.388-.318-.6-.558-.449-.9S12.329,17.62,12.661,17.681Zm.413,5.071a1.42,1.42,0,0,1,.475.757.549.549,0,0,1-.147.39.845.845,0,0,1-.8.236Z" transform="translate(-1.817 -3.766)" fill="#424242"/>
    </g>
  </g>
</svg>
