<svg width="50" height="50" viewBox="0 0 50 50" fill="none" xmlns="http://www.w3.org/2000/svg">
<circle cx="25" cy="25" r="25" fill="#FFEFE6"/>
<path d="M23.95 30.15H23.8709C23.4808 30.15 23.1067 29.995 22.8308 29.7192C22.555 29.4433 22.4 29.0692 22.4 28.6791C22.4 28.268 22.2367 27.8737 21.946 27.583C21.6553 27.2924 21.2611 27.1291 20.85 27.1291C20.4389 27.1291 20.0447 27.2924 19.754 27.583C19.4633 27.8737 19.3 28.268 19.3 28.6791C19.3 29.8913 19.7816 31.054 20.6388 31.9112C21.496 32.7684 22.6587 33.25 23.8709 33.25H23.95V34.8C23.95 35.2111 24.1133 35.6053 24.404 35.896C24.6947 36.1867 25.0889 36.35 25.5 36.35C25.9111 36.35 26.3053 36.1867 26.596 35.896C26.8867 35.6053 27.05 35.2111 27.05 34.8V33.25C28.2833 33.25 29.466 32.7601 30.338 31.888C31.2101 31.016 31.7 29.8333 31.7 28.6C31.7 27.3667 31.2101 26.184 30.338 25.312C29.466 24.4399 28.2833 23.95 27.05 23.95V20.85H27.0841C27.9211 20.85 28.6 21.5289 28.6 22.3659C28.6 22.777 28.7633 23.1712 29.054 23.4619C29.3447 23.7526 29.7389 23.9159 30.15 23.9159C30.5611 23.9159 30.9553 23.7526 31.246 23.4619C31.5367 23.1712 31.7 22.777 31.7 22.3659C31.7 21.1417 31.2137 19.9676 30.348 19.102C29.4824 18.2363 28.3083 17.75 27.0841 17.75H27.05V16.2C27.05 15.7889 26.8867 15.3947 26.596 15.104C26.3053 14.8133 25.9111 14.65 25.5 14.65C25.0889 14.65 24.6947 14.8133 24.404 15.104C24.1133 15.3947 23.95 15.7889 23.95 16.2V17.75C22.7167 17.75 21.534 18.2399 20.662 19.112C19.7899 19.984 19.3 21.1667 19.3 22.4C19.3 23.6333 19.7899 24.816 20.662 25.688C21.534 26.5601 22.7167 27.05 23.95 27.05V30.15ZM27.05 30.15V27.05C27.4611 27.05 27.8553 27.2133 28.146 27.504C28.4367 27.7947 28.6 28.1889 28.6 28.6C28.6 29.0111 28.4367 29.4053 28.146 29.696C27.8553 29.9867 27.4611 30.15 27.05 30.15ZM23.95 20.85V23.95C23.5389 23.95 23.1447 23.7867 22.854 23.496C22.5633 23.2053 22.4 22.8111 22.4 22.4C22.4 21.9889 22.5633 21.5947 22.854 21.304C23.1447 21.0133 23.5389 20.85 23.95 20.85ZM25.5 41C16.9394 41 10 34.0606 10 25.5C10 16.9394 16.9394 10 25.5 10C34.0606 10 41 16.9394 41 25.5C41 34.0606 34.0606 41 25.5 41Z" fill="#FFA775"/>
</svg>
