<svg xmlns="http://www.w3.org/2000/svg" width="50" height="50" viewBox="0 0 50 50">
  <g id="sales-icon" transform="translate(-950 -186)">
    <g id="Ellipse_4" data-name="Ellipse 4" transform="translate(950 186)" fill="#fff" stroke="#ffeee5" stroke-width="3">
      <circle cx="25" cy="25" r="25" stroke="none"/>
      <circle cx="25" cy="25" r="23.5" fill="none"/>
    </g>
    <path id="Path_62" data-name="Path 62" d="M12.074,18.388h-.068A1.241,1.241,0,0,1,11.1,18a1.38,1.38,0,0,1-.373-.949,1.454,1.454,0,0,0-.393-1,1.293,1.293,0,0,0-1.9,0,1.454,1.454,0,0,0-.393,1A4.289,4.289,0,0,0,9.208,20a3.855,3.855,0,0,0,2.8,1.222h.068v1.415a1.454,1.454,0,0,0,.393,1,1.293,1.293,0,0,0,1.9,0,1.454,1.454,0,0,0,.393-1V21.217A3.922,3.922,0,0,0,17.6,19.974a4.408,4.408,0,0,0,0-6,3.922,3.922,0,0,0-2.846-1.243V9.9h.03A1.349,1.349,0,0,1,16.1,11.285a1.454,1.454,0,0,0,.393,1,1.293,1.293,0,0,0,1.9,0,1.454,1.454,0,0,0,.393-1,4.331,4.331,0,0,0-1.17-2.979,3.893,3.893,0,0,0-2.825-1.234h-.03V5.658a1.454,1.454,0,0,0-.393-1,1.293,1.293,0,0,0-1.9,0,1.454,1.454,0,0,0-.393,1V7.072A3.922,3.922,0,0,0,9.228,8.315a4.408,4.408,0,0,0,0,6,3.922,3.922,0,0,0,2.846,1.243Zm2.683,0V15.559a1.307,1.307,0,0,1,.949.414,1.469,1.469,0,0,1,0,2A1.307,1.307,0,0,1,14.757,18.388ZM12.074,9.9V12.73a1.307,1.307,0,0,1-.949-.414,1.469,1.469,0,0,1,0-2A1.307,1.307,0,0,1,12.074,9.9ZM13.415,28.29C6.006,28.29,0,21.957,0,14.145S6.006,0,13.415,0,26.83,6.333,26.83,14.145,20.824,28.29,13.415,28.29Z" transform="translate(962 197)" fill="#ffa775"/>
  </g>
</svg>
