<svg xmlns="http://www.w3.org/2000/svg" width="15" height="15" viewBox="0 0 15 15">
  <g id="Group_30" data-name="Group 30" transform="translate(-35 -289)">
    <rect id="Rectangle_5" data-name="Rectangle 5" width="15" height="15" transform="translate(35 289)" fill="none" opacity="0.62"/>
    <g id="Group_29" data-name="Group 29" transform="translate(35 288.999)">
      <path id="Path_39" data-name="Path 39" d="M9.258,7.5a2.671,2.671,0,0,0,2.667-1.833,6.9,6.9,0,0,0,.417-2.917C12.342,1,11.175,0,9.258,0S6.175,1,6.175,2.751a6.9,6.9,0,0,0,.417,2.917A2.634,2.634,0,0,0,9.258,7.5Z" transform="translate(-1.758 0)" fill="#6c7991"/>
      <path id="Path_40" data-name="Path 40" d="M9.6,11.551H7.267a4,4,0,0,0-4,4v.25a2.418,2.418,0,0,0,2.417,2.417h5.583A2.418,2.418,0,0,0,13.683,15.8v-.25A4.187,4.187,0,0,0,9.6,11.551Z" transform="translate(-0.933 -3.217)" fill="#6c7991"/>
      <path id="Path_41" data-name="Path 41" d="M15.633,3.451a7.046,7.046,0,0,1-1.167,4.5,2.963,2.963,0,0,0,.833.167,1.979,1.979,0,0,0,2-1.417,6.214,6.214,0,0,0,.333-2.167,2.088,2.088,0,0,0-1.917-2.083H15.55A4.056,4.056,0,0,1,15.633,3.451Z" transform="translate(-4.133 -0.7)" fill="#6c7991"/>
      <path id="Path_42" data-name="Path 42" d="M4.433,8a2.96,2.96,0,0,0,.833-.167C4.183,6.666,4.1,4.916,4.1,3.332a4.057,4.057,0,0,1,.083-1A2.027,2.027,0,0,0,2.1,4.249v.167a6.528,6.528,0,0,0,.333,2.167A1.892,1.892,0,0,0,4.433,8Z" transform="translate(-0.6 -0.665)" fill="#6c7991"/>
      <path id="Path_43" data-name="Path 43" d="M1.333,15.568a4.965,4.965,0,0,1,2.417-4.25H3a2.987,2.987,0,0,0-3,3v.167a1.784,1.784,0,0,0,1.417,1.75A1.625,1.625,0,0,1,1.333,15.568Z" transform="translate(0 -3.15)" fill="#6c7991"/>
      <path id="Path_44" data-name="Path 44" d="M16.467,11.318h-.833a4.965,4.965,0,0,1,2.417,4.25v.75a1.809,1.809,0,0,0,1.417-1.833v-.167A2.987,2.987,0,0,0,16.467,11.318Z" transform="translate(-4.467 -3.15)" fill="#6c7991"/>
    </g>
  </g>
</svg>
