<svg xmlns="http://www.w3.org/2000/svg" xmlns:xlink="http://www.w3.org/1999/xlink" width="175" height="40" viewBox="0 0 175 40">
  <defs>
    <clipPath id="clip-path">
      <rect id="Rectangle_1" data-name="Rectangle 1" width="175" height="40" fill="#fff"/>
    </clipPath>
  </defs>
  <g id="ts-logo" clip-path="url(#clip-path)">
    <path id="Path_1" data-name="Path 1" d="M0,46.729H17.968V43.446h-7.5s-3.994-.27-1.482-4.039,5.5-8.077,5.5-8.077H10.277Z" transform="translate(0 -7.015)" fill="#e93231"/>
    <path id="Path_2" data-name="Path 2" d="M61.975,46.73H44.009V43.446h7.5s3.994-.269,1.485-4.038-5.506-8.077-5.506-8.077h4.208Z" transform="translate(-9.854 -7.016)" fill="#e93231"/>
    <path id="Path_3" data-name="Path 3" d="M20.837,15.528h4.4s3.479-5.139,4.113-5.949,2.132-2.517,4.008.284,3.734,5.653,3.734,5.653l4.29-.016L31.118.184Z" transform="translate(-4.666 -0.041)" fill="#e93231"/>
    <path id="Path_4" data-name="Path 4" d="M28.511,37.672c.025-.031.038-.045.051-.061q1.311-1.449,2.626-2.9a.144.144,0,0,1,.053-.041.142.142,0,0,1,.066-.012q2.016,0,4.034,0a2.8,2.8,0,0,0,.653-.064,1.06,1.06,0,0,0,.333-.136.83.83,0,0,0,.391-.586,2.282,2.282,0,0,0,0-.661.853.853,0,0,0-.521-.668,1.425,1.425,0,0,0-.5-.128c-.127-.012-.257-.015-.384-.015-1.041,0-2.082,0-3.12,0a5.407,5.407,0,0,1-1.57-.223,3.46,3.46,0,0,1-.877-.4,2.466,2.466,0,0,1-1.091-1.467,3.783,3.783,0,0,1-.134-1c0-.636,0-1.271,0-1.9,0-.176.029-.345.043-.519a.394.394,0,0,0,.006-.049H27.16V37.616c-.051.014-2.515.017-2.6,0V26.845l-4.315.037c0-.031.026-.04.041-.052q.637-.538,1.276-1.074c.44-.368.877-.735,1.314-1.1a.2.2,0,0,1,.149-.054l8.725.008q3.659,0,7.321-.008h.1c-.02.025-.03.039-.043.054l-1.778,2.128a.129.129,0,0,1-.111.042l-4.5,0a1.5,1.5,0,0,0-.856.26c-.094.063-.186.134-.274.2a.811.811,0,0,0-.282.511,1.657,1.657,0,0,0-.017.243c0,.18,0,.361,0,.542a.925.925,0,0,0,.032.274.531.531,0,0,0,.112.209,1.006,1.006,0,0,0,.617.341,3.941,3.941,0,0,0,.554.04h3.141a4.6,4.6,0,0,1,1.777.343,3.807,3.807,0,0,1,1.688,1.328,2.8,2.8,0,0,1,.549,1.673c0,.548,0,1.1,0,1.646a3.532,3.532,0,0,1-.2,1.206,2.745,2.745,0,0,1-1.223,1.437,4.05,4.05,0,0,1-1.221.457,6.413,6.413,0,0,1-1.38.139H28.511Z" transform="translate(-4.534 -5.508)" fill="#1a1818" fill-rule="evenodd"/>
    <path id="Path_5" data-name="Path 5" d="M92.172,15.743v7.225H89.291l-.013-.013s-.015-.011-.015-.017c-.006-.091-.015-.18-.015-.268q0-11.138.012-22.275c0-.015.014-.027.037-.067h.226l5.936,0a5.379,5.379,0,0,1,1.349.236,7.677,7.677,0,0,1,5.444,5.441,7.523,7.523,0,0,1-2.015,7.5c-.364.373-.761.717-1.159,1.054a3.428,3.428,0,0,1-1.125.67c0,.014-.012.022-.015.03a.032.032,0,0,0,0,.022.729.729,0,0,0,.045.087q2.44,3.774,4.875,7.546c0,.01,0,.017,0,.025-.171.058-2.742.083-3.5.033-.042-.067-.092-.141-.139-.214q-2.12-3.4-4.235-6.8a.409.409,0,0,0-.4-.228c-.7.013-1.407.007-2.111.007Zm.017-2.963c.075.006.124.013.171.013.844,0,1.685.009,2.526,0a5.542,5.542,0,0,0,.95-.1,4.736,4.736,0,0,0,3.681-5.394,4.664,4.664,0,0,0-2.4-3.43A3.9,3.9,0,0,0,95.207,3.3c-.964-.022-1.93-.014-2.895-.018a.8.8,0,0,0-.124.022Z" transform="translate(-19.983 -0.073)" fill="#1a1818" fill-rule="evenodd"/>
    <path id="Path_6" data-name="Path 6" d="M162.554,23.088q4.087-11.28,8.164-22.512h1.595q4.091,11.244,8.2,22.512Zm4.21-2.763c.5.059,9.466.03,9.642-.032-1.627-4.458-3.256-8.919-4.934-13.37Q169.121,13.621,166.764,20.325Z" transform="translate(-36.398 -0.129)" fill="#1a1818" fill-rule="evenodd"/>
    <path id="Path_7" data-name="Path 7" d="M221.464,20.036v2.9c-.185.049-11.644.069-12.113.024-.053-.169-.078-22.141-.026-22.6.183-.045,11.581-.07,12.111-.024a26.094,26.094,0,0,1,.015,2.926h-9.2v6.905c.1,0,.2.006.3.006h8.91v2.939h-9.217v6.923h9.217Z" transform="translate(-46.864 -0.07)" fill="#e93231" fill-rule="evenodd"/>
    <path id="Path_8" data-name="Path 8" d="M120.953,16.491l2.82-1.027c.016.075.033.134.041.192a9.425,9.425,0,0,0,.442,1.954,3.966,3.966,0,0,0,3.768,2.624,4.161,4.161,0,0,0,4.008-3.117,4.054,4.054,0,0,0-1.087-3.967,8.113,8.113,0,0,0-3.062-1.934A10.291,10.291,0,0,1,124.6,9.35a5.185,5.185,0,0,1-1.87-4.114A5.28,5.28,0,0,1,131.989,1.8a5.736,5.736,0,0,1,.954,1.673c.1.248.183.5.285.777-.895.355-1.766.7-2.653,1.047-.036-.078-.062-.142-.092-.21-.136-.305-.265-.614-.41-.916a2.351,2.351,0,1,0-3.751,2.757,6.422,6.422,0,0,0,.954.763,6.774,6.774,0,0,0,1.613.814,10.945,10.945,0,0,1,4.066,2.535,6.812,6.812,0,0,1,2.11,5.292,7.1,7.1,0,0,1-4.391,6.316,6.97,6.97,0,0,1-3.221.475,6.75,6.75,0,0,1-5.4-3.328,8.112,8.112,0,0,1-1.039-2.882C120.993,16.78,120.976,16.644,120.953,16.491Z" transform="translate(-27.083 0)" fill="#e93231" fill-rule="evenodd"/>
    <path id="Path_9" data-name="Path 9" d="M75.37,22.975H72.427V3.276H67.211a24.9,24.9,0,0,1-.018-2.93H80.6a26.133,26.133,0,0,1,.012,2.92H75.37Z" transform="translate(-15.038 -0.078)" fill="#1a1818" fill-rule="evenodd"/>
    <path id="Path_10" data-name="Path 10" d="M150.309,22.975h-2.944V3.276h-5.219a27.133,27.133,0,0,1-.019-2.93h13.406a26.188,26.188,0,0,1,.01,2.92h-5.235Z" transform="translate(-31.817 -0.078)" fill="#e93231" fill-rule="evenodd"/>
    <path id="Path_11" data-name="Path 11" d="M192.449,3.273H187.23a27.716,27.716,0,0,1-.012-2.929h13.406a27.324,27.324,0,0,1,.009,2.918h-5.205a1.511,1.511,0,0,0-.031.177c-.007.073,0,.145,0,.218V22.975h-2.944Z" transform="translate(-41.913 -0.077)" fill="#e93231" fill-rule="evenodd"/>
    <path id="Path_12" data-name="Path 12" d="M114.946,22.974h-2.887V.344h2.887Z" transform="translate(-25.092 -0.077)" fill="#1a1818" fill-rule="evenodd"/>
    <path id="Path_13" data-name="Path 13" d="M207.123,46.791h-4.19V46.15c.175-.052,4.839-.062,5.093-.007a2.814,2.814,0,0,1-.186.976,3.89,3.89,0,0,1-3.642,2.613,4,4,0,0,1-3.43-1.622A3.874,3.874,0,0,1,203.1,42a4.2,4.2,0,0,1,3.183.528,3.13,3.13,0,0,1,1.165,1.231c.045.084.081.174.134.3-.286,0-.537.008-.783-.007-.056,0-.116-.081-.154-.138a2.806,2.806,0,0,0-1.726-1.2,3.294,3.294,0,0,0-3.831,1.73,3.267,3.267,0,0,0,5.357,3.572A2.482,2.482,0,0,0,207.123,46.791Z" transform="translate(-44.783 -9.38)" fill="#1a1818" fill-rule="evenodd"/>
    <path id="Path_14" data-name="Path 14" d="M135.2,43.094c0,1.088,0,2.178,0,3.265v3.261h-.739V42.093c.13,0,.266-.013.4-.012a1.506,1.506,0,0,1,.6.037c.153.081.237.3.347.462l3.683,5.462c.049.072.1.146.179.256a6.971,6.971,0,0,0,.023-.909c.006-.292,0-.589,0-.882V42.094h.7c.054.163.071,7.195.013,7.537h-.65c-.116,0-.143-.1-.191-.168l-1.523-2.251q-1.328-1.969-2.659-3.936c-.045-.065-.093-.126-.14-.191Z" transform="translate(-30.108 -9.419)" fill="#1a1818" fill-rule="evenodd"/>
    <path id="Path_15" data-name="Path 15" d="M154.9,49.739a3.989,3.989,0,0,1-4.014-3.35,3.861,3.861,0,0,1,1.9-3.917,3.987,3.987,0,0,1,5.974,2.685,3.925,3.925,0,0,1-2.659,4.377A3.8,3.8,0,0,1,154.9,49.739Zm3.145-3.9a3.217,3.217,0,1,0-3.206,3.2,3.244,3.244,0,0,0,3.206-3.2Z" transform="translate(-33.776 -9.383)" fill="#1a1818" fill-rule="evenodd"/>
    <path id="Path_16" data-name="Path 16" d="M185.631,49.739a3.964,3.964,0,0,1-3.944-3.34,3.9,3.9,0,0,1,2.39-4.178,3.924,3.924,0,1,1,1.554,7.519Zm3.211-3.906a3.217,3.217,0,1,0-3.2,3.21,3.257,3.257,0,0,0,3.2-3.21Z" transform="translate(-40.673 -9.383)" fill="#1a1818" fill-rule="evenodd"/>
    <path id="Path_17" data-name="Path 17" d="M107.805,44h-.824c-.027-.037-.054-.065-.078-.1a2.8,2.8,0,0,0-2.473-1.3,3.007,3.007,0,0,0-2.8,1.588,3.235,3.235,0,0,0,.781,4.127,3.253,3.253,0,0,0,1.366.648,2.881,2.881,0,0,0,2.781-.842,3.552,3.552,0,0,0,.326-.364.35.35,0,0,1,.334-.149c.2.009.391,0,.615,0-.039.082-.061.141-.089.194a3.63,3.63,0,0,1-2.525,1.851,3.945,3.945,0,0,1-2.8-7.285,4.137,4.137,0,0,1,4.494.414,3.318,3.318,0,0,1,.81,1.005A1.958,1.958,0,0,1,107.805,44Z" transform="translate(-22.491 -9.381)" fill="#1a1818" fill-rule="evenodd"/>
    <path id="Path_18" data-name="Path 18" d="M118.53,42.082h.505c.066,0,.13.007.221.011V45.36c.2.058,3.567.072,3.918.02V42.1h.712c.046.179.063,7.13.02,7.519h-.723V46.14c-.2-.056-3.551-.07-3.912-.022v3.5h-.741Z" transform="translate(-26.54 -9.423)" fill="#1a1818" fill-rule="evenodd"/>
    <path id="Path_19" data-name="Path 19" d="M86.879,42.092h4.085v.674h-3.3a23.963,23.963,0,0,0-.019,2.7h3.21v.686c-.257.014-.522,0-.788.006s-.54,0-.811,0H87.666a23.023,23.023,0,0,0-.022,2.783h3.319v.68H86.879Z" transform="translate(-19.453 -9.425)" fill="#1a1818" fill-rule="evenodd"/>
    <path id="Path_20" data-name="Path 20" d="M220.605,49.63h-.751c0-.092-.011-.179-.011-.264,0-.678,0-1.355,0-2.032a.858.858,0,0,0-.106-.417q-1.189-2.281-2.366-4.562c-.04-.078-.078-.156-.13-.258h.837c.7,1.375,1.4,2.765,2.133,4.208.743-1.436,1.461-2.822,2.183-4.213h.824c-.049.1-.089.185-.132.27-.787,1.5-1.572,3.007-2.361,4.506a1.05,1.05,0,0,0-.128.511c.009.661,0,1.322,0,1.984Z" transform="translate(-48.644 -9.425)" fill="#1a1818" fill-rule="evenodd"/>
    <path id="Path_21" data-name="Path 21" d="M75.86,42.758V49.6a4.305,4.305,0,0,1-.765.024v-6.86h-1.7v-.648c.167-.056,3.616-.079,4.169-.026v.662Z" transform="translate(-16.433 -9.419)" fill="#1a1818" fill-rule="evenodd"/>
    <path id="Path_22" data-name="Path 22" d="M169.688,42.1h.733c0,.576,0,1.144,0,1.71s0,1.14,0,1.714v3.43c.357.01.7,0,1.036,0h2.073V49.6c-.165.049-3.461.067-3.843.017Z" transform="translate(-37.995 -9.426)" fill="#1a1818" fill-rule="evenodd"/>
  </g>
</svg>
