<svg xmlns="http://www.w3.org/2000/svg" width="232.855" height="177.181" viewBox="0 0 232.855 177.181">
  <g id="Group_220" data-name="Group 220" transform="translate(-14495 -1377.644)">
    <g id="Group_10" data-name="Group 10" transform="translate(14495 1377.644)">
      <g id="Group_9" data-name="Group 9">
        <g id="Group_7" data-name="Group 7" transform="translate(0 108.234)">
          <path id="Path_27" data-name="Path 27" d="M114.859,264.737h80.275v-14.7H161.622S143.78,248.829,155,231.953s24.585-36.163,24.585-36.163H160.772Z" transform="translate(-114.859 -195.79)" fill="#e93231"/>
        </g>
        <g id="Group_8" data-name="Group 8" transform="translate(152.591 108.234)">
          <path id="Path_28" data-name="Path 28" d="M223.842,264.737H143.577v-14.7h33.5s17.842-1.206,6.636-18.082-24.6-36.163-24.6-36.163h18.8Z" transform="translate(-143.577 -195.79)" fill="#e93231"/>
        </g>
        <path id="Path_29" data-name="Path 29" d="M128.456,244.123h19.66s15.542-23.012,18.374-26.636,9.527-11.27,17.906,1.27S201.08,244.07,201.08,244.07l19.165-.07L174.39,175.42Z" transform="translate(-56.209 -175.42)" fill="#e93231"/>
      </g>
    </g>
    <path id="Path_30" data-name="Path 30" d="M164.989,249.929c.112-.138.17-.2.229-.271q5.858-6.488,11.732-12.97a.638.638,0,0,1,.531-.239q9.006.016,18.023.011a12.5,12.5,0,0,0,2.917-.287,4.731,4.731,0,0,0,1.488-.611,3.718,3.718,0,0,0,1.748-2.625,10.229,10.229,0,0,0,.011-2.96,3.814,3.814,0,0,0-2.327-2.991,6.353,6.353,0,0,0-2.247-.574c-.569-.053-1.148-.069-1.716-.069-4.649-.011-9.3,0-13.937-.016a24.12,24.12,0,0,1-7.014-1,15.452,15.452,0,0,1-3.916-1.769,11.04,11.04,0,0,1-4.872-6.567,16.974,16.974,0,0,1-.6-4.5c-.011-2.848-.011-5.691.021-8.523,0-.786.128-1.546.191-2.322a1.84,1.84,0,0,0,.027-.218h-6.323v48.251c-.229.064-11.238.074-11.6.005V201.45c-6.445.058-12.848.112-19.277.165.016-.138.117-.181.181-.234q2.845-2.407,5.7-4.809c1.966-1.647,3.916-3.289,5.871-4.941a.913.913,0,0,1,.664-.244q19.479.024,38.979.037,16.347,0,32.709-.037h.43c-.09.112-.133.175-.191.244q-3.969,4.758-7.943,9.527a.576.576,0,0,1-.494.186q-10.066,0-20.122-.011a6.681,6.681,0,0,0-3.826,1.164c-.42.282-.829.6-1.222.909a3.631,3.631,0,0,0-1.259,2.29,7.442,7.442,0,0,0-.074,1.089c-.016.808-.011,1.615-.011,2.428a4.15,4.15,0,0,0,.144,1.227,2.378,2.378,0,0,0,.5.935,4.491,4.491,0,0,0,2.758,1.525,17.525,17.525,0,0,0,2.476.181h14.033a20.5,20.5,0,0,1,7.938,1.536,17.013,17.013,0,0,1,7.54,5.946,12.571,12.571,0,0,1,2.455,7.492c0,2.455.011,4.915,0,7.37a15.849,15.849,0,0,1-.9,5.4,12.282,12.282,0,0,1-5.462,6.434,18.068,18.068,0,0,1-5.457,2.046,28.581,28.581,0,0,1-6.164.622H164.989Z" transform="translate(14437.13 1271.092)" fill="#1a1818" fill-rule="evenodd"/>
  </g>
</svg>
