<svg width="8" height="16" viewBox="0 0 8 16" fill="none" xmlns="http://www.w3.org/2000/svg">
<path d="M7.9973 8.01176C7.99782 8.26167 7.90487 8.50385 7.73458 8.69628L2.02324 15.1136C1.82936 15.332 1.55074 15.4694 1.2487 15.4955C0.946653 15.5215 0.645916 15.4342 0.412646 15.2527C0.179376 15.0711 0.0326816 14.8102 0.00483348 14.5274C-0.0230147 14.2446 0.0702644 13.963 0.264151 13.7446L5.38151 8.01176L0.446914 2.27894C0.352031 2.16954 0.281174 2.04366 0.238417 1.90853C0.19566 1.7734 0.181845 1.6317 0.197768 1.49155C0.21369 1.35141 0.259034 1.2156 0.331196 1.09192C0.403357 0.968236 0.500913 0.859129 0.618254 0.770866C0.735703 0.672916 0.873491 0.598733 1.02298 0.552963C1.17248 0.507194 1.33045 0.490828 1.48702 0.504885C1.64358 0.518942 1.79535 0.563121 1.93283 0.634656C2.07031 0.706191 2.19053 0.803542 2.28596 0.920606L7.80311 7.33794C7.94648 7.5359 8.01486 7.77314 7.9973 8.01176Z" fill="#B5BCCA"/>
<path d="M7.9973 8.01176C7.99782 8.26167 7.90487 8.50385 7.73458 8.69628L2.02324 15.1136C1.82936 15.332 1.55074 15.4694 1.2487 15.4955C0.946653 15.5215 0.645916 15.4342 0.412646 15.2527C0.179376 15.0711 0.0326816 14.8102 0.00483348 14.5274C-0.0230147 14.2446 0.0702644 13.963 0.264151 13.7446L5.38151 8.01176L0.446914 2.27894C0.352031 2.16954 0.281174 2.04366 0.238417 1.90853C0.19566 1.7734 0.181845 1.6317 0.197768 1.49155C0.21369 1.35141 0.259034 1.2156 0.331196 1.09192C0.403357 0.968236 0.500913 0.859129 0.618254 0.770866C0.735703 0.672916 0.873491 0.598733 1.02298 0.552963C1.17248 0.507194 1.33045 0.490828 1.48702 0.504885C1.64358 0.518942 1.79535 0.563121 1.93283 0.634656C2.07031 0.706191 2.19053 0.803542 2.28596 0.920606L7.80311 7.33794C7.94648 7.5359 8.01486 7.77314 7.9973 8.01176Z" fill="#B5BCCA"/>
<path d="M7.9973 8.01176C7.99782 8.26167 7.90487 8.50385 7.73458 8.69628L2.02324 15.1136C1.82936 15.332 1.55074 15.4694 1.2487 15.4955C0.946653 15.5215 0.645916 15.4342 0.412646 15.2527C0.179376 15.0711 0.0326816 14.8102 0.00483348 14.5274C-0.0230147 14.2446 0.0702644 13.963 0.264151 13.7446L5.38151 8.01176L0.446914 2.27894C0.352031 2.16954 0.281174 2.04366 0.238417 1.90853C0.19566 1.7734 0.181845 1.6317 0.197768 1.49155C0.21369 1.35141 0.259034 1.2156 0.331196 1.09192C0.403357 0.968236 0.500913 0.859129 0.618254 0.770866C0.735703 0.672916 0.873491 0.598733 1.02298 0.552963C1.17248 0.507194 1.33045 0.490828 1.48702 0.504885C1.64358 0.518942 1.79535 0.563121 1.93283 0.634656C2.07031 0.706191 2.19053 0.803542 2.28596 0.920606L7.80311 7.33794C7.94648 7.5359 8.01486 7.77314 7.9973 8.01176Z" fill="#B5BCCA"/>
</svg>
