<svg width="21" height="21" viewBox="0 0 21 21" fill="none" xmlns="http://www.w3.org/2000/svg">
<g clip-path="url(#clip0)">
<path d="M19.6 17.2H16.3C14.2 17.2 12.5 15.5 12.5 13.4C12.5 11.3 14.2 9.59997 16.3 9.59997H19.6C19.9 9.59997 20.1 9.39997 20.1 9.09997V7.59997C20.1 6.59997 19.3 5.79997 18.3 5.69997L15.5 0.999969C15.2 0.599969 14.8 0.199969 14.3 0.0999688C13.8 -3.12477e-05 13.3 -3.12328e-05 12.9 0.299969L3.6 5.69997H1.9C0.9 5.69997 0 6.59997 0 7.59997V19.1C0 20.1 0.9 21 1.9 21H18.1C19.2 21 20 20.1 20 19.1V17.7C20 17.4 19.8 17.2 19.6 17.2ZM16.1 3.89997L17.1 5.69997H13L16.1 3.89997ZM5.5 5.69997L13.5 1.09997C13.7 0.999969 13.9 0.899969 14.1 0.999969C14.3 1.09997 14.5 1.19997 14.7 1.39997L7.3 5.69997H5.5Z" fill="#B5BCCA"/>
<path d="M19.5999 10.5H16.2999C14.6999 10.5 13.3999 11.8 13.3999 13.4C13.3999 15 14.6999 16.3 16.2999 16.3H19.5999C20.3999 16.3 20.9999 15.7 20.9999 14.9V12C20.9999 11.1 20.3999 10.5 19.5999 10.5ZM16.1999 14.3C15.6999 14.3 15.1999 13.9 15.1999 13.3C15.1999 12.7 15.5999 12.3 16.1999 12.3C16.6999 12.3 17.1999 12.7 17.1999 13.3C17.1999 13.9 16.7999 14.3 16.1999 14.3Z" fill="#B5BCCA"/>
</g>
<defs>
<clipPath id="clip0">
<rect width="21" height="21" fill="white"/>
</clipPath>
</defs>
</svg>
