<svg width="21" height="21" viewBox="0 0 21 21" fill="none" xmlns="http://www.w3.org/2000/svg">
<path d="M16.7002 18.4C15.9002 19.1 15.0002 19.8 14.2002 20.5C14.1002 20.6 14.1002 20.6 14.0002 20.7C13.6002 21.1 13.1002 21.1 12.7002 20.7C11.8002 20 11.0002 19.2 10.2002 18.5L10.1002 18.4C9.7002 18.8 9.2002 19.2 8.8002 19.5C8.3002 19.9 7.9002 20.3 7.4002 20.7C7.1002 21 6.7002 21 6.4002 20.9C6.0002 20.7 5.8002 20.4 5.8002 20C5.8002 19.6 5.8002 19.1 5.8002 18.7C5.8002 13.8 5.8002 8.8 5.8002 3.9C5.8002 2.6 5.3002 1.5 4.3002 0.7C3.9002 0.6 3.6002 0.4 3.2002 0.2C3.4002 0 3.7002 0 3.9002 0C7.1002 0 10.2002 0 13.4002 0C14.6002 0 15.9002 0 17.1002 0C19.0002 0 20.6002 1.3 20.9002 3.2C21.0002 3.4 21.0002 3.7 21.0002 3.9C21.0002 9.2 21.0002 14.5 21.0002 19.9C21.0002 20.5 20.7002 20.9 20.2002 21C19.9002 21 19.6002 20.9 19.4002 20.7C18.6002 20 17.7002 19.2 16.9002 18.5C16.8002 18.5 16.7002 18.5 16.7002 18.4ZM10.6002 7.6C10.0002 7.6 9.6002 8 9.6002 8.6C9.6002 9.1 10.0002 9.5 10.6002 9.6C12.5002 9.6 14.3002 9.6 16.2002 9.6C16.3002 9.6 16.5002 9.6 16.6002 9.5C17.0002 9.3 17.3002 8.9 17.2002 8.4C17.1002 8 16.7002 7.6 16.3002 7.6C15.3002 7.6 11.5002 7.6 10.6002 7.6ZM16.2002 13.4C16.8002 13.4 17.2002 13 17.2002 12.5C17.2002 11.9 16.8002 11.5 16.2002 11.5C14.3002 11.5 12.5002 11.5 10.6002 11.5C10.4002 11.5 10.3002 11.5 10.1002 11.6C9.7002 11.8 9.5002 12.2 9.6002 12.7C9.7002 13.1 10.1002 13.4 10.5002 13.5C11.5002 13.4 15.2002 13.4 16.2002 13.4ZM16.1002 5.7C16.2002 5.7 16.3002 5.7 16.5002 5.7C17.0002 5.6 17.3002 5.2 17.2002 4.7C17.2002 4.2 16.8002 3.9 16.3002 3.9C15.5002 3.9 11.7002 3.9 10.6002 3.9C10.3002 3.9 10.0002 4 9.8002 4.2C9.6002 4.5 9.5002 4.8 9.7002 5.2C9.9002 5.6 10.1002 5.8 10.5002 5.8C11.4002 5.7 15.2002 5.7 16.1002 5.7Z" fill="#B5BCCA"/>
<path d="M3.8 11.5C3.7 11.5 3.6 11.5 3.6 11.5C2.8 11.5 1.9 11.5 1.1 11.5C0.4 11.5 0 11.1 0 10.4C0 8.09995 0 5.89995 0 3.59995C0 2.59995 0.8 1.69995 1.9 1.69995C2.9 1.69995 3.8 2.49995 3.8 3.49995C3.8 6.09995 3.8 8.69995 3.8 11.3C3.8 11.4 3.8 11.4 3.8 11.5Z" fill="#B5BCCA"/>
</svg>
