<svg width="21" height="21" viewBox="0 0 21 21" fill="none" xmlns="http://www.w3.org/2000/svg">
<path d="M9.6 13.1C8.2 13.1 7 11.9 7 10.5C7 9.1 8.2 7.9 9.6 7.9H14V2.4C14 1.1 12.9 0 11.6 0H2.4C1.1 0 0 1.1 0 2.4V18.6C0 19.9 1.1 21 2.4 21H11.6C12.9 21 14 19.9 14 18.6V13.1H9.6Z" fill="#B5BCCA"/>
<path d="M16.3002 14.7999C16.0002 14.6999 15.8002 14.2999 15.8002 13.9999V11.3999H9.6002C9.1002 11.3999 8.7002 10.9999 8.7002 10.4999C8.7002 9.99994 9.1002 9.59994 9.6002 9.59994H15.7002V6.99994C15.7002 6.59994 15.9002 6.29994 16.2002 6.19994C16.5002 6.09994 16.9002 6.09994 17.2002 6.39994L20.7002 9.89994C21.0002 10.1999 21.0002 10.7999 20.7002 11.0999L17.2002 14.5999C17.0002 14.8999 16.6002 14.8999 16.3002 14.7999Z" fill="#B5BCCA"/>
</svg>
