<svg width="21" height="23" viewBox="0 0 21 23" fill="none" xmlns="http://www.w3.org/2000/svg">
<path d="M1.43749 0H13.6512L20.125 6.44864V21.5625C20.125 22.3567 19.481 23 18.6875 23H1.43749C0.643965 23 0 22.3567 0 21.5625V1.43749C0 0.643295 0.644039 0 1.43749 0Z" fill="#E2574C"/>
<path d="M20.1043 6.46878H15.0939C14.3003 6.46878 13.6564 5.82481 13.6564 5.03129V0.0144043L20.1043 6.46878Z" fill="#B53629"/>
<path d="M15.8726 15.8368C16.1747 15.8368 16.3226 15.5835 16.3226 15.3381C16.3226 15.084 16.1684 14.8386 15.8726 14.8386H14.1521C13.8157 14.8386 13.6282 15.1066 13.6282 15.4023V19.4685C13.6282 19.831 13.8428 20.0322 14.1331 20.0322C14.4217 20.0322 14.6372 19.831 14.6372 19.4685V18.3525H15.6779C16.0007 18.3525 16.1621 18.0984 16.1621 17.846C16.1621 17.5989 16.0007 17.3534 15.6779 17.3534H14.6372V15.8368C14.6372 15.8368 15.8726 15.8368 15.8726 15.8368ZM10.0572 14.8386H8.7983C8.45653 14.8386 8.21393 15.0641 8.21393 15.3988V19.472C8.21393 19.8874 8.56289 20.0175 8.81267 20.0175H10.1338C11.6974 20.0175 12.7299 19.028 12.7299 17.5009C12.7291 15.8862 11.757 14.8386 10.0572 14.8386ZM10.1176 19.0133H9.3502V15.8429H10.0419C11.0889 15.8429 11.5442 16.5184 11.5442 17.4506C11.5442 18.323 11.0969 19.0133 10.1176 19.0133ZM5.50603 14.8386H4.25891C3.90631 14.8386 3.70972 15.0623 3.70972 15.4023V19.4685C3.70972 19.831 3.93514 20.0322 4.2381 20.0322C4.54107 20.0322 4.76649 19.831 4.76649 19.4685V18.2813H5.5483C6.51316 18.2813 7.30943 17.624 7.30943 16.5669C7.30952 15.5324 6.54125 14.8386 5.50603 14.8386ZM5.48531 17.3275H4.76658V15.7934H5.48531C5.92898 15.7934 6.21123 16.1264 6.21123 16.5609C6.2103 16.9945 5.92898 17.3275 5.48531 17.3275Z" fill="white"/>
<path d="M10.449 11.1644V5.93555" stroke="white" stroke-linecap="round" stroke-linejoin="round"/>
<path d="M8.16125 8.87671L10.4489 11.1643L12.7365 8.87671" stroke="white" stroke-linecap="round" stroke-linejoin="round"/>
</svg>
