<svg width="21" height="19" viewBox="0 0 21 19" fill="none" xmlns="http://www.w3.org/2000/svg">
<g clip-path="url(#clip0)">
<path d="M0 9.5C0.6 9.5 1.3 9.5 1.9 9.5C1.9 9.2 1.9 8.8 2 8.5C2.3 5.9 3.5 3.7 5.6 2.1C7.5 0.6 9.8 -0.0999999 12.3 0.1C16.6 0.4 20.2 3.7 21 7.9C21.8 12.6 19 17.2 14.5 18.6C10.9 19.7 7.7 18.9 4.9 16.3C4.5 15.9 4.5 15.3 4.9 14.9C5.3 14.5 5.9 14.5 6.3 14.9C7.5 16 8.8 16.7 10.4 17C13.1 17.4 15.4 16.6 17.2 14.7C20.9 10.7 19.3 4.2 14.1 2.4C9.6 0.8 4.8 3.5 4 8.1C3.9 8.5 3.8 9 3.8 9.5C4.5 9.5 5.1 9.5 5.7 9.5C4.7 10.8 3.8 12 2.8 13.3C2.7 13.2 2.7 13.2 2.6 13.1C1.8 11.9 0 9.5 0 9.5Z" fill="#B5BCCA"/>
<path d="M11.5001 10.6C12.5001 10.6 13.4001 10.6 14.3001 10.6C14.9001 10.6 15.3001 11 15.3001 11.5C15.3001 12.1 14.9001 12.5 14.3001 12.5C13.1001 12.5 11.9001 12.5 10.7001 12.5C10.0001 12.5 9.6001 12.1 9.6001 11.4C9.6001 9.60001 9.6001 7.70001 9.6001 5.90001C9.6001 5.50001 9.8001 5.20001 10.1001 5.00001C10.4001 4.80001 10.8001 4.90001 11.1001 5.10001C11.4001 5.30001 11.5001 5.60001 11.5001 5.90001C11.5001 7.40001 11.5001 8.80001 11.5001 10.3C11.5001 10.4 11.5001 10.5 11.5001 10.6Z" fill="#B5BCCA"/>
</g>
<defs>
<clipPath id="clip0">
<rect width="21" height="19" fill="white"/>
</clipPath>
</defs>
</svg>
