<svg width="17" height="21" viewBox="0 0 17 21" fill="none" xmlns="http://www.w3.org/2000/svg">
<path d="M17 10.5C17 13.0375 17 15.6625 17 18.2C17 19.5125 16.065 20.65 14.79 20.9125C14.62 20.9125 14.365 21 14.195 21C10.455 21 6.63 21 2.89 21C1.275 21 0 19.775 0 18.2C0 14.35 0 10.5 0 6.64999C0 5.86249 0.34 5.16249 0.935 4.54999C2.295 3.4125 3.655 2.1875 4.93 0.874999C5.61 0.2625 6.29 0 7.225 0C9.52 0 11.815 0 14.11 0C15.725 0 17 1.225 17 2.8C17 5.33749 17 7.96249 17 10.5ZM7.905 9.97499C7.905 9.36249 7.905 8.74999 7.905 8.22499C7.905 7.78749 7.65 7.61249 7.31 7.69999C7.225 7.69999 7.225 7.69999 7.14 7.69999C5.1 8.04999 3.655 9.71249 3.4 11.9C3.23 13.825 4.335 15.8375 6.035 16.5375C8.755 17.675 11.815 16.0125 12.41 13.125C12.495 12.6 12.325 12.3375 11.815 12.3375C10.71 12.3375 9.605 12.3375 8.5 12.3375C8.075 12.3375 7.905 12.1625 7.905 11.725C7.905 11.1125 7.905 10.5875 7.905 9.97499ZM11.815 10.5C11.9 10.5 11.985 10.5 12.07 10.5C12.58 10.5 13.09 10.5 13.6 10.5C13.94 10.5 14.025 10.325 13.94 9.97499C13.94 9.88749 13.855 9.71249 13.855 9.62499C13.6 7.69999 12.07 6.21249 10.2 5.86249C9.775 5.77499 9.52 6.03749 9.52 6.47499C9.52 7.61249 9.52 8.74999 9.52 9.88749C9.52 10.325 9.69 10.5 10.115 10.5C10.71 10.5 11.22 10.5 11.815 10.5Z" fill="#B5BCCA"/>
</svg>
