<svg width="21" height="21" viewBox="0 0 21 21" fill="none" xmlns="http://www.w3.org/2000/svg">
<path d="M10.5002 10.5009C12.1335 10.6175 13.6502 9.56752 14.2336 7.93419C14.7002 6.65086 14.9336 5.25086 14.8169 3.85086C14.8169 1.40086 13.1835 0.000854492 10.5002 0.000854492C7.81687 0.000854492 6.18354 1.40086 6.18354 3.85086C6.06687 5.25086 6.30021 6.65086 6.76687 7.93419C7.23354 9.56752 8.7502 10.5009 10.5002 10.5009Z" fill="#B5BCCA"/>
<path d="M12.1333 11.5511H8.86661C5.71661 11.5511 3.2666 14.1178 3.2666 17.1512V17.5012C3.2666 19.3678 4.78326 20.8845 6.64993 20.8845H14.4666C16.3333 20.8845 17.8499 19.3678 17.8499 17.5012V17.1512C17.7333 14.1178 15.1666 11.5511 12.1333 11.5511Z" fill="#B5BCCA"/>
<path d="M16.1001 3.85117C16.1001 6.06783 15.8668 8.40118 14.4668 10.1512C14.8168 10.2678 15.2835 10.3845 15.6335 10.3845C16.9168 10.3845 18.0835 9.68449 18.4335 8.40116C18.7835 7.46783 18.9002 6.41784 18.9002 5.36784C18.9002 3.85117 17.7335 2.56784 16.2168 2.45117C16.1001 2.45117 15.9835 2.45117 15.9835 2.45117C16.1002 2.91784 16.1001 3.3845 16.1001 3.85117Z" fill="#B5BCCA"/>
<path d="M5.36677 10.2678C5.71677 10.2678 6.18343 10.1512 6.53343 10.0345C5.01677 8.4012 4.90009 5.95119 4.90009 3.73452C4.90009 3.26786 4.9001 2.80119 5.01676 2.33453C3.5001 2.21786 2.21676 3.5012 2.1001 5.01786C2.1001 5.13453 2.1001 5.13453 2.1001 5.25119C2.1001 6.30119 2.21676 7.23453 2.56676 8.28453C2.91676 9.56787 4.08343 10.3845 5.36677 10.2678Z" fill="#B5BCCA"/>
<path d="M1.86667 17.2678C1.86667 14.8178 3.15 12.6012 5.25 11.3179H4.20001C1.86667 11.3179 0 13.1845 0 15.5178V15.7512C0 16.9179 0.816663 17.9679 1.98333 18.2012C1.86666 17.9679 1.86667 17.6178 1.86667 17.2678Z" fill="#B5BCCA"/>
<path d="M16.8 11.3179H15.6333C17.7333 12.6012 19.0166 14.8178 19.0166 17.2678C19.0166 17.6178 19.0166 17.9679 19.0166 18.3179C20.1833 18.0845 21 17.0345 21 15.7512V15.5178C21 13.1845 19.1333 11.3179 16.8 11.3179Z" fill="#B5BCCA"/>
</svg>
