<svg width="21" height="21" viewBox="0 0 21 21" fill="none" xmlns="http://www.w3.org/2000/svg">
<path d="M20.4 19.8H19.8V5.50002C19.8 5.20002 19.5 4.90002 19.2 4.90002H16.7C16.4 4.90002 16.1 5.20002 16.1 5.50002V19.7H14.9V8.00002C14.9 7.70002 14.6 7.40002 14.3 7.40002H11.8C11.5 7.40002 11.2 7.70002 11.2 8.00002V19.8H9.9V11.7C9.9 11.4 9.6 11.1 9.3 11.1H6.8C6.5 11.1 6.2 11.4 6.2 11.7V19.8H5V15.4C5 15.1 4.7 14.8 4.4 14.8H1.8C1.5 14.8 1.2 15.1 1.2 15.4V19.8H0.6C0.3 19.8 0 20 0 20.4C0 20.8 0.3 21 0.6 21H20.4C20.7 21 21 20.7 21 20.4C21 20.1 20.7 19.8 20.4 19.8Z" fill="#B5BCCA"/>
<path d="M8 0H3C2.7 0 2.5 0.3 2.5 0.6C2.5 0.9 2.8 1.2 3.1 1.2H8.1C8.4 1.2 8.7 0.9 8.7 0.6C8.7 0.3 8.4 0 8 0Z" fill="#B5BCCA"/>
<path d="M0.6 1.2C0.931371 1.2 1.2 0.931371 1.2 0.6C1.2 0.268629 0.931371 0 0.6 0C0.268629 0 0 0.268629 0 0.6C0 0.931371 0.268629 1.2 0.6 1.2Z" fill="#B5BCCA"/>
<path d="M7.9999 2.5H2.9999C2.6999 2.5 2.3999 2.8 2.3999 3.1C2.3999 3.4 2.6999 3.7 2.9999 3.7H7.9999C8.2999 3.7 8.5999 3.4 8.5999 3.1C8.5999 2.8 8.3999 2.5 7.9999 2.5Z" fill="#B5BCCA"/>
<path d="M0.6 3.7C0.931371 3.7 1.2 3.43137 1.2 3.1C1.2 2.76863 0.931371 2.5 0.6 2.5C0.268629 2.5 0 2.76863 0 3.1C0 3.43137 0.268629 3.7 0.6 3.7Z" fill="#B5BCCA"/>
<path d="M7.9999 4.90002H2.9999C2.6999 4.90002 2.3999 5.20002 2.3999 5.50002C2.3999 5.80002 2.6999 6.10002 2.9999 6.10002H7.9999C8.2999 6.10002 8.5999 5.80002 8.5999 5.50002C8.5999 5.20002 8.3999 4.90002 7.9999 4.90002Z" fill="#B5BCCA"/>
<path d="M0.6 6.10002C0.931371 6.10002 1.2 5.8314 1.2 5.50002C1.2 5.16865 0.931371 4.90002 0.6 4.90002C0.268629 4.90002 0 5.16865 0 5.50002C0 5.8314 0.268629 6.10002 0.6 6.10002Z" fill="#B5BCCA"/>
</svg>
