<svg xmlns="http://www.w3.org/2000/svg" width="14" height="14" viewBox="0 0 14 14">
  <g id="Group_132" data-name="Group 132" transform="translate(-0.23 -0.221)">
    <g id="Group_210" data-name="Group 210" transform="translate(0.23 0.221)">
      <path id="Path_119" data-name="Path 119" d="M19.64.221a1.243,1.243,0,0,1,.753.45c.593.6,1.193,1.189,1.79,1.782a.87.87,0,0,1,.045,1.28c-.32.349-.667.671-1.013,1.015Q19.6,3.1,17.988,1.461c-.015.009-.028.019-.041.028.024-.028.048-.056.074-.082.236-.236.481-.465.71-.708a1.363,1.363,0,0,1,.81-.478Z" transform="translate(-8.488 -0.221)" fill="#a9b4c8"/>
      <path id="Path_120" data-name="Path 120" d="M9.777,9.293c2.362-2.366,4.761-4.772,7.17-7.183C18.026,3.216,19.1,4.32,20.186,5.438l-7.168,7.181C11.94,11.51,10.864,10.408,9.777,9.293Z" transform="translate(-8.008 -0.332)" fill="#a9b4c8"/>
      <path id="Path_121" data-name="Path 121" d="M9.159,10.205c1.091,1.108,2.156,2.2,3.228,3.284L7.845,14.78C8.283,13.253,8.716,11.747,9.159,10.205Z" transform="translate(-7.845 -0.78)" fill="#a9b4c8"/>
    </g>
  </g>
</svg>
