<svg xmlns="http://www.w3.org/2000/svg" width="15" height="15" viewBox="0 0 15 15">
  <g id="Group_132" data-name="Group 132" transform="translate(-0.23 -0.221)">
    <path id="Path_118" data-name="Path 118" d="M2.5,15.462c-.135-.023-.272-.038-.4-.072A2.384,2.384,0,0,1,.346,13.783,2.36,2.36,0,0,1,.23,13q0-4.794,0-9.588A2.372,2.372,0,0,1,1.272,1.38,2.327,2.327,0,0,1,2.529.952q.094,0,.188,0h7.659c-.023.028-.035.046-.051.061q-.666.667-1.334,1.33a.222.222,0,0,1-.139.054q-2.833,0-5.664,0a1.465,1.465,0,0,0-1.148.494,1.442,1.442,0,0,0-.366.994q0,4.319,0,8.636A1.442,1.442,0,0,0,2.83,13.974a1.651,1.651,0,0,0,.347.032q4.313,0,8.625,0a1.453,1.453,0,0,0,1.5-1.5q0-2.83,0-5.659a.22.22,0,0,1,.072-.171q.65-.645,1.295-1.294a.428.428,0,0,0,.051-.075l.026.017c0,.024.006.05.006.075q0,3.794,0,7.587a2.381,2.381,0,0,1-1.038,2.031,2.312,2.312,0,0,1-1.139.422c-.032,0-.064.011-.1.017Q7.488,15.464,2.5,15.462Z" transform="translate(0 -0.241)"/>
    <path id="Path_119" data-name="Path 119" d="M19.149.221a.882.882,0,0,1,.535.32c.421.424.847.844,1.271,1.265a.617.617,0,0,1,.032.908c-.227.247-.473.476-.719.721Q19.119,2.266,17.976,1.1c-.011.006-.02.014-.029.02.017-.02.034-.04.052-.058.168-.168.341-.33.5-.5a.968.968,0,0,1,.575-.34Z" transform="translate(-5.941 0)"/>
    <path id="Path_120" data-name="Path 120" d="M9.777,7.167c1.677-1.666,3.38-3.36,5.09-5.058.765.779,1.528,1.557,2.3,2.344L12.078,9.509C11.312,8.728,10.549,7.952,9.777,7.167Z" transform="translate(-3.23 -0.627)"/>
    <path id="Path_121" data-name="Path 121" d="M8.778,10.205c.775.787,1.531,1.558,2.291,2.331l-3.224.916C8.156,12.369,8.463,11.3,8.778,10.205Z" transform="translate(-2.553 -3.354)"/>
  </g>
</svg>
