<svg width="14" height="14" viewBox="0 0 14 14" fill="none" xmlns="http://www.w3.org/2000/svg">
<path d="M7.00014 7.00078C8.08902 7.07856 9.10014 6.37856 9.48903 5.28967C9.80015 4.43411 9.9557 3.50078 9.87792 2.56745C9.87792 0.934114 8.78902 0.000778198 7.00014 0.000778198C5.21125 0.000778198 4.12236 0.934114 4.12236 2.56745C4.04458 3.50078 4.20014 4.43411 4.51125 5.28967C4.82236 6.37856 5.83347 7.00078 7.00014 7.00078Z" fill="#747596"/>
<path d="M8.08884 7.70078H5.91107C3.81107 7.70078 2.17773 9.4119 2.17773 11.4341V11.6674C2.17773 12.9119 3.18884 13.923 4.43328 13.923H9.64439C10.8888 13.923 11.8999 12.9119 11.8999 11.6674V11.4341C11.8222 9.4119 10.1111 7.70078 8.08884 7.70078Z" fill="#747596"/>
<path d="M10.7334 2.56746C10.7334 4.04523 10.5779 5.6008 9.64453 6.76746C9.87786 6.84524 10.189 6.923 10.4223 6.923C11.2779 6.923 12.0556 6.45634 12.289 5.60078C12.5223 4.97856 12.6001 4.27857 12.6001 3.57857C12.6001 2.56746 11.8223 1.7119 10.8112 1.63412C10.7334 1.63412 10.6557 1.63412 10.6557 1.63412C10.7334 1.94524 10.7334 2.25634 10.7334 2.56746Z" fill="#747596"/>
<path d="M3.57768 6.84522C3.81102 6.84522 4.12213 6.76746 4.35546 6.68968C3.34435 5.60079 3.26656 3.96745 3.26656 2.48967C3.26656 2.17856 3.26657 1.86745 3.34435 1.55634C2.33324 1.47856 1.47768 2.33412 1.3999 3.34523C1.3999 3.42301 1.3999 3.42301 1.3999 3.50079C1.3999 4.20079 1.47768 4.82301 1.71101 5.52301C1.94434 6.37857 2.72213 6.923 3.57768 6.84522Z" fill="#747596"/>
<path d="M1.24445 11.5119C1.24445 9.87856 2.1 8.4008 3.5 7.54524H2.8C1.24445 7.54524 0 8.78967 0 10.3452V10.5008C0 11.2786 0.544442 11.9786 1.32222 12.1341C1.24444 11.9786 1.24445 11.7452 1.24445 11.5119Z" fill="#747596"/>
<path d="M11.1999 7.54524H10.4221C11.8221 8.4008 12.6777 9.87856 12.6777 11.5119C12.6777 11.7452 12.6777 11.9786 12.6777 12.2119C13.4554 12.0564 13.9999 11.3563 13.9999 10.5008V10.3452C13.9999 8.78967 12.7555 7.54524 11.1999 7.54524Z" fill="#747596"/>
</svg>
