<svg width="19" height="19" viewBox="0 0 19 19" fill="none" xmlns="http://www.w3.org/2000/svg">
<path d="M9.5 2.70328L2.11111 8.61439V16.8889H7.38889V12.6667H11.6111V16.8889H16.8889V9.12211C16.8889 8.96381 16.8534 8.80753 16.7849 8.66482C16.7164 8.52212 16.6166 8.39666 16.4931 8.29772L9.5 2.70328ZM9.5 0L17.8114 6.65C18.1821 6.94648 18.4813 7.32249 18.6871 7.75021C18.8928 8.17793 18.9997 8.64643 19 9.12106V16.8889C19 17.4488 18.7776 17.9858 18.3817 18.3817C17.9858 18.7776 17.4488 19 16.8889 19H2.11111C1.55121 19 1.01424 18.7776 0.61833 18.3817C0.22242 17.9858 0 17.4488 0 16.8889V8.61439C3.94753e-05 8.29797 0.0712064 7.9856 0.208238 7.7004C0.34527 7.41519 0.544661 7.16443 0.791667 6.96667L9.5 0Z" fill="#B5BCCA"/>
</svg>
