<svg width="25" height="25" viewBox="0 0 25 25" fill="none" xmlns="http://www.w3.org/2000/svg">
<path d="M12.4999 2.08331C6.75617 2.08331 2.08325 6.75623 2.08325 12.5C2.08325 18.2437 6.75617 22.9166 12.4999 22.9166C18.2437 22.9166 22.9166 18.2437 22.9166 12.5C22.9166 6.75623 18.2437 2.08331 12.4999 2.08331ZM20.7614 11.4583H17.8822C17.7537 9.17836 17.1159 6.95619 16.0155 4.95519C17.2908 5.55107 18.3946 6.45977 19.2243 7.59676C20.0541 8.73375 20.5828 10.0621 20.7614 11.4583ZM13.052 4.19477C14.1301 5.6156 15.5801 8.13227 15.7885 11.4583H9.40617C9.55096 8.75415 10.4416 6.22081 11.9593 4.19373C12.1385 4.18331 12.3176 4.16665 12.4999 4.16665C12.6864 4.16665 12.8687 4.18331 13.052 4.19477ZM9.04992 4.92394C8.02492 6.89373 7.43325 9.12706 7.32284 11.4583H4.23846C4.41843 10.0498 4.95475 8.7105 5.79668 7.56708C6.63862 6.42366 7.75834 5.51393 9.04992 4.92394ZM4.23846 13.5416H7.33638C7.47804 16.0198 8.02909 18.2062 8.95721 20.0312C7.68866 19.4332 6.5913 18.5252 5.76654 17.3909C4.94178 16.2566 4.41623 14.9328 4.23846 13.5416ZM11.927 20.8052C10.4676 19.0364 9.60617 16.5583 9.41763 13.5416H15.7853C15.5687 16.4302 14.6218 18.9541 13.0739 20.8041C12.8843 20.8166 12.6947 20.8333 12.4999 20.8333C12.3062 20.8333 12.1176 20.8166 11.927 20.8052ZM16.1051 20.001C17.0999 18.1323 17.7072 15.9375 17.8666 13.5416H20.7603C20.5845 14.9211 20.0665 16.2347 19.2535 17.3628C18.4404 18.491 17.3581 19.3979 16.1051 20.001Z" fill="#B5BCCA"/>
</svg>
