<svg width="18" height="22" viewBox="0 0 18 22" fill="none" xmlns="http://www.w3.org/2000/svg">
<g clip-path="url(#clip0)">
<path d="M17.9998 4.6C17.9998 5.8 17.5998 6.7 16.8998 7.5C13.7998 10.7 10.7998 13.8 7.69984 17C7.29984 17.4 6.69984 17.7 6.19984 17.8C4.99984 18 3.79984 18.3 2.59984 18.5C1.49984 18.7 0.399845 18 0.0998451 17C-0.100155 16.5 -0.000154942 15.9 0.0998451 15.4C0.299845 14.3 0.599845 13.1 0.799845 12C0.899845 11.5 1.09985 11.1 1.49985 10.7C4.59984 7.5 7.69985 4.3 10.7998 1.2C12.2998 -0.400001 14.7998 -0.300001 16.2998 1.3C16.4998 1.5 16.6998 1.7 16.9998 2C17.6998 2.8 17.9998 3.7 17.9998 4.6ZM2.09984 16.3C2.19984 16.3 2.19985 16.3 2.29984 16.3C3.49985 16.1 4.69985 15.9 5.89985 15.7C5.99985 15.7 6.19985 15.6 6.29985 15.5C7.79985 14 9.29985 12.4 10.7998 10.9C12.3998 9.3 13.8998 7.7 15.4998 6.1C16.1998 5.3 16.1998 4.4 15.4998 3.6C15.2998 3.3 14.9998 3.1 14.7998 2.9C14.0998 2.1 12.8998 2.2 12.1998 2.9C9.29984 5.9 6.39985 8.9 3.49985 11.9C2.99985 12.1 2.79984 12.5 2.69985 13C2.59985 14.1 2.29984 15.2 2.09984 16.3Z" fill="black"/>
<path d="M16.8 22H1.1C0.5 22 0 21.5 0 20.9C0 20.3 0.5 19.8 1.1 19.8H16.9C17.5 19.8 18 20.3 18 20.9C17.9 21.5 17.4 22 16.8 22Z" fill="black"/>
</g>
<defs>
<clipPath id="clip0">
<rect width="18" height="22" fill="white"/>
</clipPath>
</defs>
</svg>
