<svg width="24" height="16" viewBox="0 0 24 16" fill="none" xmlns="http://www.w3.org/2000/svg">
<path d="M21.8223 3.05176e-05H1.91124C1.53404 3.05176e-05 1.17229 0.140506 0.905573 0.390555C0.638854 0.640603 0.489014 0.979742 0.489014 1.33336V14.6667C0.489014 15.0203 0.638854 15.3595 0.905573 15.6095C1.17229 15.8596 1.53404 16 1.91124 16H21.8223C22.1995 16 22.5613 15.8596 22.828 15.6095C23.0947 15.3595 23.2446 15.0203 23.2446 14.6667V1.33336C23.2446 0.979742 23.0947 0.640603 22.828 0.390555C22.5613 0.140506 22.1995 3.05176e-05 21.8223 3.05176e-05ZM20.7272 14.6667H3.09168L8.06946 9.84003L7.04546 8.91336L1.91124 13.8934V2.3467L10.7503 10.5934C11.0168 10.8417 11.3773 10.9811 11.753 10.9811C12.1287 10.9811 12.4892 10.8417 12.7557 10.5934L21.8223 2.14003V13.8067L16.5886 8.90003L15.5859 9.84003L20.7272 14.6667ZM2.84279 1.33336H20.6703L11.753 9.6467L2.84279 1.33336Z" fill="#B5BCCA"/>
</svg>
