<svg width="18" height="15" viewBox="0 0 18 15" fill="none" xmlns="http://www.w3.org/2000/svg">
<g clip-path="url(#clip0)">
<path d="M7.29903 0C6.89903 0 6.39902 0.2 6.09902 0.5C5.79902 0.8 5.59902 1.30001 5.59902 1.70001V2.29999H1.69902C1.29902 2.29999 0.799023 2.49999 0.499023 2.79999C0.199023 3.09999 -0.000976562 3.6 -0.000976562 4V5.60001L8.59902 8C8.89902 8.1 9.19902 8.1 9.49902 8L18.099 5.60001V4C18.099 3.5 17.899 3.09999 17.599 2.79999C17.299 2.49999 16.899 2.29999 16.399 2.29999H12.499V1.70001C12.499 1.20001 12.299 0.8 11.999 0.5C11.699 0.2 11.299 0 10.799 0H7.29903ZM7.29903 1.20001H10.699C10.799 1.20001 10.999 1.29999 11.099 1.39999C11.199 1.49999 11.299 1.69999 11.299 1.79999V2.39999H6.79903V1.79999C6.79903 1.59999 6.89902 1.49999 6.99902 1.39999C6.99902 1.19999 7.19903 1.20001 7.29903 1.20001Z" fill="#B5BCCA"/>
<path d="M-0.00107574 13.2C-0.00107574 13.7 0.198924 14.1 0.498924 14.4C0.798924 14.7 1.19892 14.9 1.69892 14.9H16.2989C16.6989 14.9 17.1989 14.7 17.4989 14.4C17.7989 14.1 17.9989 13.6 17.9989 13.2V6.60001L9.09892 9.10001C8.99892 9.10001 8.89893 9.10001 8.79893 9.10001L-0.101074 6.60001L-0.00107574 13.2Z" fill="#B5BCCA"/>
</g>
<defs>
<clipPath id="clip0">
<rect width="18" height="15" fill="white"/>
</clipPath>
</defs>
</svg>
