<svg width="23" height="23" viewBox="0 0 23 23" fill="none" xmlns="http://www.w3.org/2000/svg">
<path d="M11.5363 16.9738C8.32208 16.9738 6.88417 15.3908 6.88417 14.2067C6.88417 13.6025 7.33125 13.1675 7.9475 13.1675C9.325 13.1675 8.97458 15.125 11.5363 15.125C12.8533 15.125 13.5904 14.4362 13.5904 13.6992C13.5904 13.2642 13.3729 12.7808 12.5029 12.5633L9.63917 11.8504C7.33125 11.2704 6.90833 10.0258 6.90833 8.85375C6.90833 6.41292 9.20417 5.49458 11.355 5.49458C13.3125 5.49458 15.6808 6.59417 15.6808 8.05625C15.6808 8.68458 15.125 9.04708 14.5208 9.04708C13.3125 9.04708 13.5542 7.41583 11.1858 7.41583C10.0138 7.41583 9.36125 7.9475 9.36125 8.70875C9.36125 9.47 10.2917 9.6875 11.0892 9.905L13.2158 10.3763C15.5358 10.8958 16.1279 12.2492 16.1279 13.5179C16.1279 15.4996 14.6054 16.9738 11.5363 16.9738ZM18.75 4.25C21.2513 6.715 22.1938 10.1588 21.6017 13.3729C22.0971 14.2429 22.375 15.2579 22.375 16.3333C22.375 17.9357 21.7385 19.4724 20.6054 20.6054C19.4724 21.7385 17.9357 22.375 16.3333 22.375C15.2579 22.375 14.2429 22.0971 13.3729 21.6017C10.1588 22.1938 6.715 21.2513 4.25 18.75C1.74875 16.285 0.80625 12.8413 1.39833 9.62708C0.902917 8.75708 0.625 7.74208 0.625 6.66667C0.625 5.06432 1.26153 3.5276 2.39456 2.39456C3.5276 1.26153 5.06432 0.625 6.66667 0.625C7.74208 0.625 8.75708 0.902917 9.62708 1.39833C12.8413 0.80625 16.285 1.74875 18.75 4.25ZM6.66667 3.04167C5.70526 3.04167 4.78322 3.42359 4.1034 4.1034C3.42359 4.78322 3.04167 5.70526 3.04167 6.66667C3.04167 7.62125 3.40417 8.47917 4.00833 9.13167C3.1625 11.8383 3.80292 14.9075 5.94167 17.0583C6.9611 18.0726 8.23845 18.7889 9.63557 19.1297C11.0327 19.4704 12.4964 19.4227 13.8683 18.9917C14.5208 19.5958 15.3788 19.9583 16.3333 19.9583C17.2947 19.9583 18.2168 19.5764 18.8966 18.8966C19.5764 18.2168 19.9583 17.2947 19.9583 16.3333C19.9583 15.3788 19.5958 14.5208 18.9917 13.8683C19.8375 11.1617 19.1971 8.0925 17.0583 5.94167C16.0389 4.92736 14.7615 4.21109 13.3644 3.87033C11.9673 3.52957 10.5036 3.57729 9.13167 4.00833C8.47917 3.40417 7.62125 3.04167 6.66667 3.04167Z" fill="#B5BCCA"/>
</svg>
