<svg width="19" height="21" viewBox="0 0 19 21" fill="none" xmlns="http://www.w3.org/2000/svg">
<path d="M9.5 0C6.58983 0 4.22222 2.47911 4.22222 5.52632C4.22222 8.57353 6.58983 11.0526 9.5 11.0526C12.4102 11.0526 14.7778 8.57353 14.7778 5.52632C14.7778 2.47911 12.4102 0 9.5 0ZM9.5 8.8421C7.75411 8.8421 6.33333 7.35442 6.33333 5.52632C6.33333 3.69821 7.75411 2.21053 9.5 2.21053C11.2459 2.21053 12.6667 3.69821 12.6667 5.52632C12.6667 7.35442 11.2459 8.8421 9.5 8.8421ZM19 21V19.8947C19 15.6295 15.6845 12.1579 11.6111 12.1579H7.38889C3.31444 12.1579 0 15.6295 0 19.8947V21H2.11111V19.8947C2.11111 16.8475 4.47872 14.3684 7.38889 14.3684H11.6111C14.5213 14.3684 16.8889 16.8475 16.8889 19.8947V21H19Z" fill="#B5BCCA"/>
</svg>
