<svg width="12" height="21" viewBox="0 0 12 21" fill="none" xmlns="http://www.w3.org/2000/svg">
<path d="M0.00405454 10.7547C0.00327255 10.4182 0.142701 10.0921 0.398136 9.83299L8.96514 1.19237C9.25597 0.898282 9.67388 0.713337 10.127 0.678228C10.58 0.643119 11.0311 0.76072 11.381 1.00516C11.7309 1.2496 11.951 1.60086 11.9927 1.98166C12.0345 2.36246 11.8946 2.74161 11.6038 3.0357L3.92774 10.7547L11.3296 18.4736C11.472 18.6209 11.5782 18.7904 11.6424 18.9723C11.7065 19.1543 11.7272 19.3451 11.7033 19.5338C11.6795 19.7225 11.6114 19.9053 11.5032 20.0719C11.395 20.2384 11.2486 20.3853 11.0726 20.5041C10.8964 20.636 10.6898 20.7359 10.4655 20.7975C10.2413 20.8592 10.0043 20.8812 9.76948 20.8623C9.53463 20.8433 9.30697 20.7839 9.10075 20.6875C8.89453 20.5912 8.7142 20.4601 8.57105 20.3025L0.295333 11.6619C0.0802741 11.3954 -0.0222812 11.0759 0.00405454 10.7547Z" fill="black"/>
</svg>
