<svg width="16" height="16" viewBox="0 0 16 16" fill="none" xmlns="http://www.w3.org/2000/svg">
<path d="M8 3C5.22222 3 3 5.22222 3 8C3 10.7778 5.22222 13 8 13C10.7778 13 13 10.7778 13 8C13 5.22222 10.7778 3 8 3ZM10.3889 10.6111C10.3333 10.6667 10.2222 10.7222 10.1111 10.7222C10 10.7222 9.88889 10.6667 9.83333 10.6111L7.72222 8.5C7.61111 8.44444 7.61111 8.33333 7.61111 8.22222V5.5C7.61111 5.27778 7.77778 5.11111 8 5.11111C8.22222 5.11111 8.38889 5.27778 8.38889 5.5V8.05556L10.3333 10C10.5556 10.1667 10.5556 10.4444 10.3889 10.6111Z" fill="#B5BCCA"/>
</svg>
