<svg width="18" height="20" viewBox="0 0 18 20" fill="none" xmlns="http://www.w3.org/2000/svg">
<path d="M11.7589 7.24603C11.5002 7.24603 11.2905 7.45571 11.2905 7.71442V16.5669C11.2905 16.8254 11.5002 17.0352 11.7589 17.0352C12.0176 17.0352 12.2273 16.8254 12.2273 16.5669V7.71442C12.2273 7.45571 12.0176 7.24603 11.7589 7.24603Z" fill="white"/>
<path d="M6.23206 7.24603C5.97335 7.24603 5.76367 7.45571 5.76367 7.71442V16.5669C5.76367 16.8254 5.97335 17.0352 6.23206 17.0352C6.49077 17.0352 6.70044 16.8254 6.70044 16.5669V7.71442C6.70044 7.45571 6.49077 7.24603 6.23206 7.24603Z" fill="white"/>
<path d="M2.20382 5.95413V17.4941C2.20382 18.1762 2.45393 18.8167 2.89084 19.2763C3.32574 19.7372 3.93098 19.9988 4.56439 19.9999H13.4263C14.0599 19.9988 14.6652 19.7372 15.0999 19.2763C15.5368 18.8167 15.7869 18.1762 15.7869 17.4941V5.95413C16.6554 5.7236 17.2182 4.88453 17.102 3.99333C16.9857 3.1023 16.2266 2.43577 15.3279 2.43559H12.9298V1.85011C12.9325 1.35776 12.7379 0.884987 12.3893 0.537176C12.0408 0.189549 11.5673 -0.00402465 11.0749 5.06443e-07H6.91582C6.42347 -0.00402465 5.94996 0.189549 5.60142 0.537176C5.25288 0.884987 5.05821 1.35776 5.06095 1.85011V2.43559H2.66287C1.76416 2.43577 1.00505 3.1023 0.888688 3.99333C0.772507 4.88453 1.3353 5.7236 2.20382 5.95413ZM13.4263 19.0632H4.56439C3.76357 19.0632 3.14058 18.3752 3.14058 17.4941V5.99529H14.8501V17.4941C14.8501 18.3752 14.2272 19.0632 13.4263 19.0632ZM5.99772 1.85011C5.99461 1.60622 6.09048 1.37148 6.26356 1.19932C6.43646 1.02715 6.67175 0.932557 6.91582 0.936765H11.0749C11.319 0.932557 11.5543 1.02715 11.7272 1.19932C11.9003 1.3713 11.9961 1.60622 11.993 1.85011V2.43559H5.99772V1.85011ZM2.66287 3.37235H15.3279C15.7935 3.37235 16.171 3.7498 16.171 4.21544C16.171 4.68108 15.7935 5.05853 15.3279 5.05853H2.66287C2.19723 5.05853 1.81978 4.68108 1.81978 4.21544C1.81978 3.7498 2.19723 3.37235 2.66287 3.37235Z" fill="white"/>
<path d="M8.99523 7.24603C8.73653 7.24603 8.52686 7.45571 8.52686 7.71442V16.5669C8.52686 16.8254 8.73653 17.0352 8.99523 17.0352C9.25394 17.0352 9.46361 16.8254 9.46361 16.5669V7.71442C9.46361 7.45571 9.25394 7.24603 8.99523 7.24603Z" fill="white"/>
</svg>
