<svg width="225" height="52" viewBox="0 0 225 52" fill="none" xmlns="http://www.w3.org/2000/svg">
<g clip-path="url(#clip0)">
<path d="M0 51.1721H23.1522V46.9418H13.487C13.487 46.9418 8.34113 46.5942 11.5771 41.7377C14.8131 36.8812 18.6677 31.3309 18.6677 31.3309H13.2418L0 51.1721Z" fill="#E93231"/>
<path d="M67.1581 51.1721H44.0088V46.9418H53.6706C53.6706 46.9418 58.8164 46.5948 55.5844 41.7383C52.3525 36.8818 48.4895 31.3315 48.4895 31.3315H53.9117L67.1581 51.1721Z" fill="#E93231"/>
<path d="M20.8369 19.9549H26.5071C26.5071 19.9549 30.9896 13.3326 31.8063 12.2897C32.6231 11.2468 34.554 9.04649 36.9706 12.6552C39.3872 16.2639 41.7825 19.9396 41.7825 19.9396L47.3099 19.9195L34.0848 0.183899L20.8369 19.9549Z" fill="#E93231"/>
<path fill-rule="evenodd" clip-rule="evenodd" d="M30.8941 41.4441C30.9264 41.4044 30.9431 41.3866 30.9601 41.3661C32.0865 40.1214 33.2143 38.8773 34.3437 37.6337C34.362 37.6109 34.3854 37.5928 34.412 37.5809C34.4386 37.5689 34.4677 37.5634 34.4969 37.5649C36.2285 37.568 37.9612 37.5691 39.6949 37.5681C39.9776 37.5736 40.26 37.5459 40.5362 37.4855C40.6883 37.4518 40.8334 37.3923 40.9654 37.3097C41.0998 37.2283 41.2146 37.1185 41.3017 36.9879C41.3888 36.8574 41.4461 36.7093 41.4695 36.5543C41.512 36.272 41.513 35.985 41.4727 35.7025C41.4457 35.5131 41.3696 35.334 41.2518 35.183C41.1341 35.0321 40.9789 34.9144 40.8016 34.8417C40.5975 34.7474 40.3778 34.6915 40.1535 34.6765C39.9894 34.6613 39.8224 34.6567 39.6586 34.6567C38.3178 34.6535 36.9764 34.6567 35.639 34.6521C34.9542 34.656 34.2725 34.559 33.6161 34.3643C33.2177 34.2479 32.8375 34.0766 32.4867 33.8552C31.7931 33.428 31.2902 32.7516 31.0815 31.9654C30.966 31.5434 30.9078 31.1079 30.9085 30.6704C30.9053 29.8508 30.9053 29.0327 30.9145 28.2177C30.9145 27.9915 30.9515 27.7728 30.9696 27.5495C30.9735 27.5288 30.9761 27.5078 30.9774 27.4868H29.1538V41.3722C29.0877 41.3906 25.9126 41.3935 25.8082 41.3736V27.4931C23.9494 27.5098 22.1027 27.5253 20.2485 27.5406C20.2531 27.5009 20.2823 27.4885 20.3007 27.4732C20.8478 27.0115 21.3957 26.5502 21.9447 26.0893C22.5117 25.6154 23.0741 25.1428 23.6379 24.6674C23.6636 24.6436 23.6937 24.6251 23.7266 24.6131C23.7595 24.601 23.7944 24.5956 23.8294 24.5972C27.5747 24.6018 31.3221 24.6054 35.0714 24.6079C38.2145 24.6079 41.3591 24.6043 44.505 24.5972H44.6291C44.6031 24.6295 44.5907 24.6476 44.574 24.6674C43.8108 25.5803 43.0472 26.4941 42.2831 27.4091C42.2654 27.4287 42.2432 27.4438 42.2184 27.4531C42.1936 27.4624 42.1669 27.4657 42.1406 27.4626C40.2052 27.4626 38.2707 27.4615 36.3372 27.4594C35.9438 27.4561 35.5587 27.5729 35.2338 27.7944C35.1126 27.8756 34.9947 27.9671 34.8813 28.056C34.6825 28.2231 34.5531 28.458 34.5182 28.715C34.5034 28.8188 34.4963 28.9235 34.4969 29.0284C34.4923 29.2609 34.4937 29.4931 34.4937 29.7271C34.4898 29.8462 34.5038 29.9652 34.5353 30.0802C34.5624 30.1796 34.6117 30.2716 34.6795 30.3493C34.8828 30.5866 35.1653 30.7425 35.4749 30.7881C35.7114 30.8223 35.95 30.8397 36.189 30.8402H40.2363C41.0212 30.8344 41.7995 30.9847 42.5257 31.2822C43.4002 31.6324 44.1551 32.2265 44.7003 32.9933C45.1619 33.6177 45.4101 34.3735 45.4083 35.1493C45.4083 35.8558 45.4115 36.5638 45.4083 37.2702C45.4128 37.7993 45.325 38.3252 45.1488 38.8242C44.8594 39.6077 44.3013 40.2636 43.5735 40.6758C43.0842 40.9557 42.5527 41.1546 41.9996 41.2646C41.4153 41.3883 40.8192 41.4483 40.2218 41.4436H30.8941V41.4441Z" fill="#1A1818"/>
<path fill-rule="evenodd" clip-rule="evenodd" d="M93.0159 20.1903V29.4992H89.3029L89.2859 29.4825C89.2798 29.4779 89.266 29.4687 89.266 29.4612C89.2582 29.3435 89.2461 29.2287 89.2461 29.1159C89.2492 19.5485 89.2543 9.98116 89.2614 0.413813C89.2614 0.393957 89.2798 0.378708 89.309 0.327484H89.6003C92.1487 0.327484 94.6981 0.32854 97.2486 0.33065C97.8385 0.357611 98.4225 0.459833 98.9863 0.634825C102.373 1.54621 105.181 4.27546 106 7.64559C106.892 11.3078 106.106 14.5844 103.404 17.3122C102.936 17.7922 102.424 18.2357 101.912 18.6699C101.489 19.0481 100.997 19.3412 100.462 19.5333C100.456 19.5517 100.447 19.562 100.444 19.5715C100.441 19.581 100.439 19.5914 100.444 19.6003C100.461 19.6388 100.48 19.6761 100.502 19.712C102.597 22.9542 104.691 26.1953 106.783 29.4353C106.789 29.4477 106.786 29.4566 106.789 29.4675C106.57 29.5424 103.257 29.5746 102.275 29.5104C102.221 29.4241 102.155 29.3285 102.095 29.2353C100.275 26.3178 98.4559 23.3984 96.6383 20.4769C96.5916 20.381 96.5167 20.3016 96.4236 20.2491C96.3305 20.1967 96.2236 20.1738 96.1172 20.1834C95.2116 20.2 94.3042 20.1926 93.3972 20.1926L93.0159 20.1903ZM93.0373 16.3721C93.1339 16.3798 93.1967 16.389 93.2579 16.389C94.3461 16.389 95.4293 16.4011 96.5129 16.383C96.924 16.3745 97.3337 16.3305 97.7372 16.2515C99.2704 15.9211 100.618 15.0155 101.501 13.7218C102.383 12.4281 102.734 10.8454 102.48 9.30087C102.184 7.32386 101.083 5.88642 99.3863 4.8818C98.6427 4.4336 97.7952 4.18571 96.9268 4.16236C95.684 4.13359 94.4395 4.14395 93.1967 4.13935C93.1429 4.14474 93.0896 4.15436 93.0373 4.16812V16.3721Z" fill="#1A1818"/>
<path fill-rule="evenodd" clip-rule="evenodd" d="M162.554 29.5832C166.065 19.8935 169.571 10.2242 173.074 0.575531H175.129C178.643 10.2346 182.164 19.9038 185.692 29.5832H162.554ZM167.979 26.0234C168.624 26.1 180.175 26.0617 180.402 25.9823C178.306 20.2374 176.208 14.4897 174.046 8.75438C172.026 14.5081 170.004 20.2645 167.979 26.0234Z" fill="#1A1818"/>
<path fill-rule="evenodd" clip-rule="evenodd" d="M224.975 25.727V29.4701C224.737 29.5329 209.972 29.5588 209.367 29.5006C209.299 29.2833 209.266 0.971221 209.333 0.374952C209.569 0.317397 224.255 0.284594 224.938 0.344452C225.015 1.59974 225.021 2.85832 224.957 4.1143H213.103V13.012C213.23 13.0134 213.363 13.0198 213.494 13.0198H224.975V16.8072H213.099V25.7282H224.975V25.727Z" fill="#E93231"/>
<path fill-rule="evenodd" clip-rule="evenodd" d="M120.953 21.2495C122.164 20.8075 123.362 20.3733 124.587 19.9258C124.607 20.0222 124.63 20.0984 124.64 20.1736C124.739 21.0308 124.93 21.875 125.209 22.6919C125.566 23.6885 126.226 24.5494 127.096 25.1552C127.965 25.761 129.003 26.0816 130.064 26.0726C131.248 26.0663 132.398 25.6687 133.332 24.9421C134.266 24.2155 134.934 23.2006 135.229 22.0559C135.662 20.1094 135.252 18.3816 133.829 16.9441C132.719 15.8272 131.371 14.9751 129.884 14.4517C128.335 13.9187 126.899 13.1037 125.649 12.048C124.873 11.4026 124.253 10.5905 123.836 9.67251C123.418 8.75449 123.215 7.75425 123.239 6.74657C123.235 3.38105 125.682 1.12432 127.662 0.419272C130.151 -0.46621 133.153 -0.0103781 135.172 2.3229C135.701 2.96712 136.117 3.69612 136.401 4.47891C136.529 4.79862 136.637 5.12266 136.769 5.48036C135.615 5.93763 134.494 6.37937 133.35 6.82887C133.304 6.72786 133.271 6.64527 133.232 6.55836C133.058 6.16526 132.891 5.76785 132.705 5.37849C131.815 3.49932 129.207 3.25615 127.843 4.70884C127.299 5.27964 126.999 6.03828 127.004 6.82547C127.01 7.61265 127.321 8.36713 127.872 8.93049C128.249 9.29637 128.661 9.62563 129.101 9.91382C129.743 10.3543 130.442 10.7071 131.179 10.9628C133.146 11.6515 134.935 12.767 136.418 14.2287C137.337 15.1026 138.056 16.1643 138.525 17.3411C138.994 18.518 139.203 19.7821 139.137 21.047C139.077 22.8024 138.511 24.5034 137.508 25.9466C136.505 27.3898 135.106 28.5139 133.479 29.1846C132.164 29.7132 130.741 29.9227 129.329 29.7962C126.282 29.5469 123.988 28.0652 122.376 25.5083C121.698 24.3663 121.243 23.1059 121.037 21.7943C121.005 21.6213 120.983 21.447 120.953 21.2495Z" fill="#E93231"/>
<path fill-rule="evenodd" clip-rule="evenodd" d="M77.7392 29.5035H73.9464V4.12178H67.2264C67.1446 2.86488 67.1369 1.60427 67.2033 0.346466H84.4754C84.5506 1.59952 84.5557 2.85579 84.4907 4.10941H77.7392V29.5035Z" fill="#1A1818"/>
<path fill-rule="evenodd" clip-rule="evenodd" d="M152.678 29.5035H148.885V4.12178H142.159C142.084 2.86467 142.076 1.60441 142.136 0.346466H159.41C159.484 1.59957 159.488 2.85584 159.422 4.10941H152.678V29.5035Z" fill="#E93231"/>
<path fill-rule="evenodd" clip-rule="evenodd" d="M193.968 4.11804H187.243C187.171 2.86133 187.166 1.6017 187.228 0.344452H204.502C204.573 1.5967 204.577 2.85183 204.514 4.10451H197.806C197.788 4.17958 197.775 4.25571 197.767 4.33243C197.757 4.42711 197.762 4.51891 197.762 4.61387V29.5041H193.968V4.11804Z" fill="#E93231"/>
<path fill-rule="evenodd" clip-rule="evenodd" d="M115.779 29.5035H112.059V0.344147H115.779V29.5035Z" fill="#1A1818"/>
<path fill-rule="evenodd" clip-rule="evenodd" d="M209.178 48.2042H203.779V47.3786C204.005 47.3113 210.014 47.2992 210.342 47.3694C210.337 47.7993 210.256 48.225 210.102 48.6264C209.763 49.6022 209.131 50.4497 208.291 51.0525C207.45 51.6553 206.444 51.984 205.409 51.9934C203.602 52.0118 202.085 51.3649 200.99 49.9033C200.487 49.2295 200.164 48.4402 200.048 47.6084C199.933 46.7766 200.03 45.9293 200.329 45.1447C200.629 44.3601 201.123 43.6637 201.764 43.1198C202.405 42.576 203.173 42.2022 203.998 42.0332C204.692 41.8707 205.412 41.8471 206.116 41.9639C206.82 42.0807 207.494 42.3354 208.099 42.7135C208.736 43.0942 209.255 43.6428 209.6 44.2991C209.658 44.4076 209.704 44.5239 209.773 44.6799C209.404 44.6799 209.081 44.6905 208.764 44.6706C208.692 44.666 208.614 44.5668 208.566 44.4934C208.055 43.7082 207.257 43.1522 206.342 42.9428C204.341 42.449 202.259 43.3282 201.406 45.1722C201.001 46.0778 200.93 47.0972 201.205 48.0502C201.48 49.0031 202.085 49.8281 202.911 50.3791C203.738 50.9302 204.733 51.1718 205.721 51.0611C206.708 50.9505 207.625 50.4948 208.309 49.7746C208.743 49.3447 209.044 48.7998 209.178 48.2042Z" fill="#1A1818"/>
<path fill-rule="evenodd" clip-rule="evenodd" d="M135.413 43.3906C135.41 44.7927 135.413 46.1964 135.413 47.597V51.7985H134.461V42.1005C134.628 42.0945 134.804 42.0838 134.977 42.0853C135.236 42.049 135.498 42.0651 135.75 42.1328C135.947 42.2367 136.056 42.5227 136.197 42.7276C137.779 45.0732 139.361 47.4193 140.944 49.766C141.006 49.8592 141.072 49.9542 141.174 50.0964C141.209 49.707 141.219 49.3157 141.203 48.9251C141.211 48.549 141.205 48.1668 141.205 47.789V42.1014H142.112C142.181 42.3109 142.204 51.3721 142.129 51.8124H141.292C141.142 51.8124 141.108 51.6869 141.046 51.5954C140.392 50.629 139.738 49.6621 139.084 48.6946C137.943 47.0035 136.801 45.3128 135.658 43.6226C135.6 43.5386 135.538 43.4606 135.478 43.3765L135.413 43.3906Z" fill="#1A1818"/>
<path fill-rule="evenodd" clip-rule="evenodd" d="M156.07 52C154.832 52.0227 153.627 51.5985 152.676 50.8055C151.726 50.0124 151.095 48.9038 150.898 47.6834C150.751 46.6941 150.906 45.6835 151.342 44.7833C151.779 43.883 152.477 43.1347 153.346 42.6358C154.057 42.2097 154.861 41.9618 155.689 41.9132C156.517 41.8646 157.345 42.0169 158.102 42.3569C158.858 42.6969 159.521 43.2146 160.033 43.8658C160.545 44.5169 160.892 45.2821 161.043 46.096C161.243 47.2897 161.007 48.5152 160.378 49.5501C159.749 50.585 158.769 51.3607 157.617 51.7364C157.119 51.9067 156.597 51.9957 156.07 52ZM160.122 46.9769C160.124 46.1583 159.882 45.3577 159.427 44.6765C158.973 43.9952 158.325 43.464 157.568 43.1501C156.81 42.8362 155.976 42.7538 155.172 42.9133C154.367 43.0728 153.628 43.4671 153.048 44.0461C152.468 44.6251 152.074 45.3628 151.914 46.1658C151.755 46.9687 151.838 47.8008 152.154 48.5565C152.469 49.3122 153.002 49.9576 153.685 50.4108C154.368 50.8641 155.17 51.1047 155.991 51.1024C157.083 51.0885 158.126 50.6492 158.898 49.8783C159.67 49.1074 160.109 48.066 160.122 46.9763V46.9769Z" fill="#1A1818"/>
<path fill-rule="evenodd" clip-rule="evenodd" d="M186.781 51.9994C185.557 52.0072 184.372 51.5772 183.44 50.7875C182.507 49.9977 181.889 48.9006 181.698 47.6952C181.534 46.5834 181.748 45.4488 182.306 44.4728C182.864 43.4967 183.734 42.7356 184.777 42.3112C185.487 42.011 186.255 41.8738 187.025 41.9098C187.795 41.9458 188.547 42.1541 189.226 42.5192C189.904 42.8844 190.492 43.397 190.945 44.0193C191.398 44.6415 191.705 45.3575 191.843 46.1141C191.956 46.8425 191.91 47.5866 191.707 48.2954C191.505 49.0042 191.151 49.6607 190.67 50.22C190.188 50.7792 189.592 51.2278 188.92 51.535C188.249 51.8422 187.519 52.0006 186.78 51.9994H186.781ZM190.918 46.966C190.918 46.1473 190.674 45.3472 190.217 44.667C189.76 43.9869 189.112 43.4574 188.353 43.1455C187.594 42.8337 186.76 42.7536 185.956 42.9155C185.151 43.0773 184.413 43.4737 183.835 44.0546C183.257 44.6354 182.865 45.3744 182.708 46.178C182.551 46.9816 182.637 47.8135 182.954 48.5683C183.272 49.3232 183.807 49.9669 184.492 50.418C185.176 50.8691 185.98 51.1072 186.8 51.1021C187.89 51.0804 188.929 50.6368 189.698 49.865C190.466 49.0932 190.904 48.0537 190.918 46.966Z" fill="#1A1818"/>
<path fill-rule="evenodd" clip-rule="evenodd" d="M109.929 44.6039H108.867C108.832 44.5564 108.797 44.5198 108.766 44.477C108.427 43.9449 107.955 43.5108 107.395 43.2179C106.836 42.9251 106.21 42.7837 105.578 42.8079C104.003 42.8125 102.749 43.4637 101.976 44.8537C101.649 45.4245 101.462 46.0641 101.43 46.7206C101.399 47.377 101.522 48.0317 101.792 48.6314C102.062 49.231 102.469 49.7587 102.982 50.1714C103.494 50.5842 104.097 50.8703 104.742 51.0066C105.382 51.1593 106.051 51.1393 106.681 50.9485C107.311 50.7577 107.879 50.4031 108.326 49.9211C108.477 49.7742 108.617 49.6174 108.746 49.4517C108.793 49.3829 108.858 49.3285 108.934 49.2945C109.01 49.2605 109.094 49.2483 109.177 49.2592C109.43 49.2713 109.681 49.2624 109.97 49.2624C109.92 49.368 109.892 49.4442 109.855 49.513C109.11 50.77 108.064 51.6276 106.602 51.8984C104.502 52.2912 102.371 51.5208 101.21 49.6966C99.793 47.4704 100.312 43.9656 102.988 42.5115C103.901 42.03 104.935 41.8241 105.963 41.9189C106.992 42.0136 107.97 42.4049 108.779 43.045C109.209 43.4044 109.563 43.8443 109.823 44.34C109.863 44.4259 109.899 44.514 109.929 44.6039Z" fill="#1A1818"/>
<path fill-rule="evenodd" clip-rule="evenodd" d="M118.53 42.0818H119.182C119.266 42.0833 119.348 42.091 119.466 42.0956V46.3061C119.721 46.3809 124.062 46.3993 124.514 46.332V42.1063H125.432C125.491 42.3365 125.513 51.2929 125.458 51.7945H124.527V47.3113C124.27 47.2393 119.952 47.2212 119.486 47.2825V51.7948H118.531L118.53 42.0818Z" fill="#1A1818"/>
<path fill-rule="evenodd" clip-rule="evenodd" d="M86.8789 42.0925H92.1419V42.961H87.8858C87.8121 44.1203 87.8039 45.2828 87.8612 46.443H91.9976V47.3268C91.6665 47.3452 91.3248 47.3314 90.9816 47.3346C90.6337 47.336 90.2859 47.3346 89.9364 47.3346H87.8935C87.8116 48.5281 87.802 49.7255 87.8647 50.9202H92.1419V51.7965H86.8789V42.0925Z" fill="#1A1818"/>
<path fill-rule="evenodd" clip-rule="evenodd" d="M221.575 51.8049H220.606C220.602 51.6858 220.592 51.5747 220.592 51.4653C220.589 50.5922 220.588 49.7191 220.597 48.8466C220.598 48.6589 220.55 48.4742 220.459 48.3099C219.438 46.3509 218.422 44.3916 217.411 42.4321C217.358 42.3311 217.309 42.2306 217.244 42.1003H218.323C219.222 43.8724 220.129 45.6629 221.07 47.5222C222.028 45.6721 222.952 43.8862 223.884 42.0939H224.946C224.883 42.224 224.831 42.3325 224.776 42.4424C223.761 44.3766 222.75 46.317 221.734 48.2483C221.623 48.4502 221.566 48.6771 221.568 48.9073C221.58 49.7591 221.574 50.6106 221.574 51.4639L221.575 51.8049Z" fill="#1A1818"/>
<path fill-rule="evenodd" clip-rule="evenodd" d="M76.5716 42.9578V51.7804C76.2447 51.8198 75.9149 51.83 75.5861 51.8109V42.9716H73.3901V42.1371C73.6047 42.0651 78.0488 42.0346 78.7615 42.1034V42.9567L76.5716 42.9578Z" fill="#1A1818"/>
<path fill-rule="evenodd" clip-rule="evenodd" d="M169.687 42.0954H170.633C170.634 42.837 170.633 43.5693 170.633 44.2989C170.634 45.0344 170.633 45.7682 170.633 46.507V50.926C171.092 50.9384 171.531 50.9292 171.967 50.9321H174.638V51.764C174.427 51.8268 170.179 51.8504 169.687 51.7853L169.687 42.0954Z" fill="#1A1818"/>
</g>
<defs>
<clipPath id="clip0">
<rect width="225" height="52" fill="white"/>
</clipPath>
</defs>
</svg>
