<svg width="22" height="22" viewBox="0 0 22 22" fill="none" xmlns="http://www.w3.org/2000/svg">
<g clip-path="url(#clip0)">
<path d="M21.6 19.4L17.7 15.5C18.9 13.8 19.6 11.8 19.6 9.8C19.6 4.4 15.2 0 9.8 0C4.4 0 0 4.4 0 9.8C0 15.2 4.4 19.6 9.8 19.6C11.9 19.6 13.9 18.9 15.5 17.7L19.4 21.6C19.7 21.9 20.1 22 20.5 22C20.9 22 21.3 21.8 21.6 21.6C22.1 21 22.1 20 21.6 19.4ZM16.5 9.8C16.5 13.5 13.5 16.5 9.8 16.5C6.1 16.5 3 13.5 3 9.8C3 6.1 6.1 3 9.8 3C13.5 3 16.5 6.1 16.5 9.8Z" fill="black"/>
</g>
<defs>
<clipPath id="clip0">
<rect width="22" height="22" fill="white"/>
</clipPath>
</defs>
</svg>
