<svg width="22" height="20" viewBox="0 0 22 20" fill="none" xmlns="http://www.w3.org/2000/svg">
<path d="M1.40639 3.2H20.5936C21.3973 3.2 22 2.5 22 1.6C22 0.7 21.4977 0 20.6941 0H1.40639C0.60274 0 0 0.7 0 1.6C0 2.5 0.60274 3.2 1.40639 3.2Z" fill="black"/>
<path d="M20.6941 8.40002H1.40639C0.60274 8.40002 0 9.10002 0 10C0 10.9 0.60274 11.6 1.40639 11.6H20.5936C21.3973 11.6 22 10.9 22 10C22 9.10002 21.4977 8.40002 20.6941 8.40002Z" fill="black"/>
<path d="M12.9589 16.8H1.40639C0.60274 16.8 0 17.5 0 18.4C0 19.3 0.60274 20 1.40639 20H12.9589C13.7626 20 14.3653 19.3 14.3653 18.4C14.3653 17.6 13.7626 16.8 12.9589 16.8Z" fill="black"/>
</svg>
