<svg width="28" height="19" viewBox="0 0 28 19" fill="none" xmlns="http://www.w3.org/2000/svg">
<path d="M7.40639 3H26.5936C27.3973 3 28 2.34375 28 1.5C28 0.65625 27.4977 0 26.6941 0H7.40639C6.60274 0 6 0.65625 6 1.5C6 2.34375 6.60274 3 7.40639 3Z" fill="black"/>
<path d="M26.6941 8H7.40639C6.60274 8 6 8.65625 6 9.5C6 10.3437 6.60274 11 7.40639 11H26.5936C27.3973 11 28 10.3437 28 9.5C28 8.65625 27.4977 8 26.6941 8Z" fill="black"/>
<path d="M26.6941 16H7.40639C6.60274 16 6 16.6563 6 17.5C6 18.3437 6.60274 19 7.40639 19H26.5936C27.3973 19 28 18.3437 28 17.5C28 16.6563 27.4977 16 26.6941 16Z" fill="black"/>
<circle cx="1.5" cy="1.5" r="1.5" fill="black"/>
<circle cx="1.5" cy="9.5" r="1.5" fill="black"/>
<circle cx="1.5" cy="17.5" r="1.5" fill="black"/>
</svg>
