<svg width="30" height="30" viewBox="0 0 30 30" fill="none" xmlns="http://www.w3.org/2000/svg">
<path d="M21.0952 12.2V9.4C21.0952 7.70261 20.4531 6.07475 19.31 4.87452C18.1669 3.67428 16.6166 3 15 3C13.3834 3 11.8331 3.67428 10.69 4.87452C9.54694 6.07475 8.90476 7.70261 8.90476 9.4V12.2H7V18.6C7 23.2318 10.5888 27 15 27C19.4112 27 23 23.2318 23 18.6V12.2H21.0952ZM10.4286 9.4C10.4286 8.12696 10.9102 6.90606 11.7675 6.00589C12.6248 5.10571 13.7876 4.6 15 4.6C16.2124 4.6 17.3752 5.10571 18.2325 6.00589C19.0898 6.90606 19.5714 8.12696 19.5714 9.4V12.2H10.4286V9.4ZM21.4762 18.6C21.4762 22.3495 18.571 25.4 15 25.4C11.429 25.4 8.52381 22.3495 8.52381 18.6V13.8H21.4762V18.6Z" fill="#B5BCCA"/>
</svg>
