<svg width="9" height="16" viewBox="0 0 9 16" fill="none" xmlns="http://www.w3.org/2000/svg">
<path d="M8.16964 7.68388C8.17012 7.93379 8.08478 8.17597 7.92845 8.3684L2.68528 14.7857C2.50728 15.0042 2.25151 15.1415 1.97422 15.1676C1.69694 15.1937 1.42085 15.1063 1.2067 14.9248C0.992553 14.7432 0.857884 14.4824 0.832318 14.1995C0.806753 13.9167 0.892386 13.6351 1.07038 13.4167L5.76826 7.68388L1.23816 1.95106C1.15106 1.84166 1.08601 1.71577 1.04676 1.58065C1.0075 1.44552 0.994821 1.30381 1.00944 1.16367C1.02406 1.02353 1.06568 0.887714 1.13193 0.764035C1.19818 0.640355 1.28773 0.531248 1.39546 0.442986C1.50328 0.345036 1.62977 0.270852 1.76701 0.225082C1.90425 0.179314 2.04928 0.162947 2.19301 0.177004C2.33674 0.191061 2.47607 0.23524 2.60228 0.306775C2.72849 0.37831 2.83886 0.475661 2.92646 0.592725L7.99137 7.01006C8.12299 7.20802 8.18576 7.44526 8.16964 7.68388Z" fill="#B5BCCA"/>
<path d="M8.16964 7.68388C8.17012 7.93379 8.08478 8.17597 7.92845 8.3684L2.68528 14.7857C2.50728 15.0042 2.25151 15.1415 1.97422 15.1676C1.69694 15.1937 1.42085 15.1063 1.2067 14.9248C0.992553 14.7432 0.857884 14.4824 0.832318 14.1995C0.806753 13.9167 0.892386 13.6351 1.07038 13.4167L5.76826 7.68388L1.23816 1.95106C1.15106 1.84166 1.08601 1.71577 1.04676 1.58065C1.0075 1.44552 0.994821 1.30381 1.00944 1.16367C1.02406 1.02353 1.06568 0.887714 1.13193 0.764035C1.19818 0.640355 1.28773 0.531248 1.39546 0.442986C1.50328 0.345036 1.62977 0.270852 1.76701 0.225082C1.90425 0.179314 2.04928 0.162947 2.19301 0.177004C2.33674 0.191061 2.47607 0.23524 2.60228 0.306775C2.72849 0.37831 2.83886 0.475661 2.92646 0.592725L7.99137 7.01006C8.12299 7.20802 8.18576 7.44526 8.16964 7.68388Z" fill="#B5BCCA"/>
<path d="M8.16964 7.68388C8.17012 7.93379 8.08478 8.17597 7.92845 8.3684L2.68528 14.7857C2.50728 15.0042 2.25151 15.1415 1.97422 15.1676C1.69694 15.1937 1.42085 15.1063 1.2067 14.9248C0.992553 14.7432 0.857884 14.4824 0.832318 14.1995C0.806753 13.9167 0.892386 13.6351 1.07038 13.4167L5.76826 7.68388L1.23816 1.95106C1.15106 1.84166 1.08601 1.71577 1.04676 1.58065C1.0075 1.44552 0.994821 1.30381 1.00944 1.16367C1.02406 1.02353 1.06568 0.887714 1.13193 0.764035C1.19818 0.640355 1.28773 0.531248 1.39546 0.442986C1.50328 0.345036 1.62977 0.270852 1.76701 0.225082C1.90425 0.179314 2.04928 0.162947 2.19301 0.177004C2.33674 0.191061 2.47607 0.23524 2.60228 0.306775C2.72849 0.37831 2.83886 0.475661 2.92646 0.592725L7.99137 7.01006C8.12299 7.20802 8.18576 7.44526 8.16964 7.68388Z" fill="#B5BCCA"/>
</svg>
