<svg width="21" height="21" viewBox="0 0 21 21" fill="none" xmlns="http://www.w3.org/2000/svg">
<path d="M10.5001 10.501C12.1334 10.6176 13.6501 9.56765 14.2334 7.93431C14.7001 6.65098 14.9334 5.25098 14.8168 3.85098C14.8168 1.40098 13.1834 0.000976562 10.5001 0.000976562C7.81675 0.000976562 6.18342 1.40098 6.18342 3.85098C6.06675 5.25098 6.30008 6.65098 6.76675 7.93431C7.23342 9.56765 8.75008 10.501 10.5001 10.501Z" fill="#B5BCCA"/>
<path d="M12.1333 11.551H8.86661C5.71661 11.551 3.2666 14.1177 3.2666 17.151V17.501C3.2666 19.3677 4.78326 20.8844 6.64993 20.8844H14.4666C16.3333 20.8844 17.8499 19.3677 17.8499 17.501V17.151C17.7333 14.1177 15.1666 11.551 12.1333 11.551Z" fill="#B5BCCA"/>
<path d="M16.1 3.85117C16.1 6.06783 15.8667 8.40118 14.4667 10.1512C14.8167 10.2678 15.2833 10.3845 15.6333 10.3845C16.9167 10.3845 18.0833 9.68449 18.4333 8.40116C18.7833 7.46783 18.9 6.41784 18.9 5.36784C18.9 3.85117 17.7333 2.56784 16.2167 2.45117C16.1 2.45117 15.9834 2.45117 15.9834 2.45117C16.1 2.91784 16.1 3.3845 16.1 3.85117Z" fill="#B5BCCA"/>
<path d="M5.36665 10.2678C5.71665 10.2678 6.18331 10.1512 6.53331 10.0345C5.01665 8.4012 4.89997 5.95119 4.89997 3.73452C4.89997 3.26786 4.89998 2.80119 5.01664 2.33453C3.49998 2.21786 2.21664 3.5012 2.09998 5.01786C2.09998 5.13453 2.09998 5.13453 2.09998 5.25119C2.09998 6.30119 2.21664 7.23453 2.56664 8.28453C2.91664 9.56787 4.08331 10.3845 5.36665 10.2678Z" fill="#B5BCCA"/>
<path d="M1.86667 17.2678C1.86667 14.8178 3.15 12.6012 5.25 11.3179H4.20001C1.86667 11.3179 0 13.1845 0 15.5178V15.7512C0 16.9179 0.816663 17.9679 1.98333 18.2012C1.86666 17.9679 1.86667 17.6178 1.86667 17.2678Z" fill="#B5BCCA"/>
<path d="M16.8 11.3179H15.6333C17.7333 12.6012 19.0166 14.8178 19.0166 17.2678C19.0166 17.6178 19.0166 17.9679 19.0166 18.3179C20.1833 18.0845 21 17.0345 21 15.7512V15.5178C21 13.1845 19.1333 11.3179 16.8 11.3179Z" fill="#B5BCCA"/>
</svg>
