<svg width="15" height="21" viewBox="0 0 15 21" fill="none" xmlns="http://www.w3.org/2000/svg">
<path d="M7.50008 10.501C9.13341 10.6176 10.6501 9.56765 11.2334 7.93431C11.7001 6.65098 11.9334 5.25098 11.8168 3.85098C11.8168 1.40098 10.1834 0.000976562 7.50008 0.000976562C4.81675 0.000976562 3.18342 1.40098 3.18342 3.85098C3.06675 5.25098 3.30008 6.65098 3.76675 7.93431C4.23342 9.56765 5.75008 10.501 7.50008 10.501Z" fill="#B5BCCA"/>
<path d="M9.13326 11.5513H5.86661C2.71661 11.5513 0.266602 14.118 0.266602 17.1513V17.5013C0.266602 19.3679 1.78326 20.8846 3.64993 20.8846H11.4666C13.3333 20.8846 14.8499 19.3679 14.8499 17.5013V17.1513C14.7333 14.118 12.1666 11.5513 9.13326 11.5513Z" fill="#B5BCCA"/>
</svg>
