<svg width="21" height="21" viewBox="0 0 21 21" fill="none" xmlns="http://www.w3.org/2000/svg">
<path d="M0.65625 21C0.830298 21 0.997218 20.9309 1.12029 20.8078C1.24336 20.6847 1.3125 20.5178 1.3125 20.3438V0.65625C1.3125 0.482203 1.24336 0.315281 1.12029 0.192211C0.997218 0.0691395 0.830298 0 0.65625 0C0.482202 0 0.315282 0.0691395 0.192211 0.192211C0.0691404 0.315281 0 0.482203 0 0.65625V20.3438C0 20.5178 0.0691404 20.6847 0.192211 20.8078C0.315282 20.9309 0.482202 21 0.65625 21V21ZM2.625 19.0312C2.625 19.2053 2.69414 19.3722 2.81721 19.4953C2.94028 19.6184 3.1072 19.6875 3.28125 19.6875H8.53125C8.7053 19.6875 8.87222 19.6184 8.99529 19.4953C9.11836 19.3722 9.1875 19.2053 9.1875 19.0312V17.7188C9.1875 17.5447 9.11836 17.3778 8.99529 17.2547C8.87222 17.1316 8.7053 17.0625 8.53125 17.0625H3.28125C3.1072 17.0625 2.94028 17.1316 2.81721 17.2547C2.69414 17.3778 2.625 17.5447 2.625 17.7188V19.0312ZM5.25 13.7812C5.25 13.9553 5.31914 14.1222 5.44221 14.2453C5.56528 14.3684 5.7322 14.4375 5.90625 14.4375H15.0938C15.2678 14.4375 15.4347 14.3684 15.5578 14.2453C15.6809 14.1222 15.75 13.9553 15.75 13.7812V12.4688C15.75 12.2947 15.6809 12.1278 15.5578 12.0047C15.4347 11.8816 15.2678 11.8125 15.0938 11.8125H5.90625C5.7322 11.8125 5.56528 11.8816 5.44221 12.0047C5.31914 12.1278 5.25 12.2947 5.25 12.4688V13.7812ZM7.875 8.53125C7.875 8.7053 7.94414 8.87222 8.06721 8.99529C8.19028 9.11836 8.3572 9.1875 8.53125 9.1875H16.4062C16.5803 9.1875 16.7472 9.11836 16.8703 8.99529C16.9934 8.87222 17.0625 8.7053 17.0625 8.53125V7.21875C17.0625 7.0447 16.9934 6.87778 16.8703 6.75471C16.7472 6.63164 16.5803 6.5625 16.4062 6.5625H8.53125C8.3572 6.5625 8.19028 6.63164 8.06721 6.75471C7.94414 6.87778 7.875 7.0447 7.875 7.21875V8.53125ZM10.5 3.28125C10.5 3.4553 10.5691 3.62222 10.6922 3.74529C10.8153 3.86836 10.9822 3.9375 11.1562 3.9375H20.3438C20.5178 3.9375 20.6847 3.86836 20.8078 3.74529C20.9309 3.62222 21 3.4553 21 3.28125V1.96875C21 1.7947 20.9309 1.62778 20.8078 1.50471C20.6847 1.38164 20.5178 1.3125 20.3438 1.3125H11.1562C10.9822 1.3125 10.8153 1.38164 10.6922 1.50471C10.5691 1.62778 10.5 1.7947 10.5 1.96875V3.28125Z" fill="#B5BCCA"/>
</svg>
