<svg xmlns="http://www.w3.org/2000/svg" xmlns:xlink="http://www.w3.org/1999/xlink" width="15" height="15" viewBox="0 0 15 15">
  <defs>
    <clipPath id="clip-path">
      <rect id="Rectangle_8" data-name="Rectangle 8" width="15" height="15" transform="translate(0 -1.462)" fill="#6c7991"/>
    </clipPath>
  </defs>
  <g id="activities-icon" transform="translate(-35 -357)">
    <rect id="Rectangle_5" data-name="Rectangle 5" width="15" height="15" transform="translate(35 357)" fill="none" opacity="0.62"/>
    <g id="Group_33" data-name="Group 33" transform="translate(35 358.462)" clip-path="url(#clip-path)">
      <path id="Path_52" data-name="Path 52" d="M0,6.776H1.351a2.419,2.419,0,0,1,.071-.711,6.482,6.482,0,0,1,2.56-4.552A6.676,6.676,0,0,1,8.748.09a6.875,6.875,0,0,1,6.187,5.547,6.784,6.784,0,0,1-4.623,7.61,6.609,6.609,0,0,1-6.827-1.636.7.7,0,0,1,1-1A5.744,5.744,0,0,0,7.4,12.109a5.28,5.28,0,0,0,4.836-1.636,5.383,5.383,0,0,0-2.2-8.748A5.38,5.38,0,0,0,2.845,5.78a4.2,4.2,0,0,0-.142,1H4.054C3.343,7.7,2.7,8.553,1.991,9.478l-.142-.142C1.28,8.482,0,6.776,0,6.776Z" transform="translate(0 -0.789)" fill="#6c7991"/>
      <path id="Path_53" data-name="Path 53" d="M10.951,8.951h1.991a.657.657,0,0,1,.711.64.672.672,0,0,1-.711.711h-2.56A.712.712,0,0,1,9.6,9.52V5.609a.747.747,0,0,1,.356-.64.654.654,0,0,1,.711.071.647.647,0,0,1,.284.569V8.951Z" transform="translate(-2.773 -2.183)" fill="#6c7991"/>
    </g>
  </g>
</svg>
