<svg width="13" height="16" viewBox="0 0 13 16" fill="none" xmlns="http://www.w3.org/2000/svg">
<path d="M6.08454 7.82505C7.86347 7.82505 9.30571 6.07337 9.30571 3.91255C9.30571 1.75168 8.8322 0 6.08454 0C3.33688 0 2.86328 1.75168 2.86328 3.91255C2.86328 6.07337 4.30552 7.82505 6.08454 7.82505Z" fill="#CAD0D7"/>
<path d="M0.00063467 13.799C8.50297e-05 13.6673 -0.000464611 13.7619 0.00063467 13.799V13.799Z" fill="#CAD0D7"/>
<path d="M12.1689 13.9019C12.1707 13.8658 12.1695 13.6517 12.1689 13.9019V13.9019Z" fill="#CAD0D7"/>
<path d="M12.1617 13.641C12.1021 9.87679 11.6105 8.80419 7.84849 8.12524C7.84849 8.12524 7.31893 8.80003 6.08465 8.80003C4.85036 8.80003 4.32072 8.12524 4.32072 8.12524C0.599802 8.79679 0.078294 9.85347 0.00972255 13.5187C0.00409969 13.818 0.001494 13.8337 0.000488281 13.799C0.000716853 13.8641 0.000991037 13.9845 0.000991037 14.1945C0.000991037 14.1945 0.896625 16 6.08465 16C11.2726 16 12.1683 14.1945 12.1683 14.1945C12.1683 14.0596 12.1684 13.9657 12.1685 13.9019C12.1675 13.9234 12.1655 13.8818 12.1617 13.641Z" fill="#CAD0D7"/>
</svg>
