<svg width="13" height="14" viewBox="0 0 13 14" fill="none" xmlns="http://www.w3.org/2000/svg">
<path d="M0.40625 13.7073C0.513994 13.7073 0.617325 13.6621 0.693512 13.5818C0.769699 13.5015 0.8125 13.3925 0.8125 13.2789V0.428326C0.8125 0.314719 0.769699 0.205766 0.693512 0.125434C0.617325 0.045102 0.513994 -2.76566e-05 0.40625 -2.76566e-05C0.298506 -2.76566e-05 0.195175 0.045102 0.118988 0.125434C0.0428012 0.205766 0 0.314719 0 0.428326V13.2789C0 13.3925 0.0428012 13.5015 0.118988 13.5818C0.195175 13.6621 0.298506 13.7073 0.40625 13.7073V13.7073ZM1.625 12.4222C1.625 12.5358 1.6678 12.6448 1.74399 12.7251C1.82017 12.8054 1.92351 12.8506 2.03125 12.8506H5.28125C5.38899 12.8506 5.49233 12.8054 5.56851 12.7251C5.6447 12.6448 5.6875 12.5358 5.6875 12.4222V11.5655C5.6875 11.4519 5.6447 11.3429 5.56851 11.2626C5.49233 11.1823 5.38899 11.1372 5.28125 11.1372H2.03125C1.92351 11.1372 1.82017 11.1823 1.74399 11.2626C1.6678 11.3429 1.625 11.4519 1.625 11.5655V12.4222ZM3.25 8.99539C3.25 9.109 3.2928 9.21795 3.36899 9.29828C3.44517 9.37861 3.54851 9.42374 3.65625 9.42374H9.34375C9.45149 9.42374 9.55483 9.37861 9.63101 9.29828C9.7072 9.21795 9.75 9.109 9.75 8.99539V8.13868C9.75 8.02508 9.7072 7.91612 9.63101 7.83579C9.55483 7.75546 9.45149 7.71033 9.34375 7.71033H3.65625C3.54851 7.71033 3.44517 7.75546 3.36899 7.83579C3.2928 7.91612 3.25 8.02508 3.25 8.13868V8.99539ZM4.875 5.56856C4.875 5.68217 4.9178 5.79112 4.99399 5.87146C5.07017 5.95179 5.17351 5.99692 5.28125 5.99692H10.1562C10.264 5.99692 10.3673 5.95179 10.4435 5.87146C10.5197 5.79112 10.5625 5.68217 10.5625 5.56856V4.71186C10.5625 4.59825 10.5197 4.4893 10.4435 4.40897C10.3673 4.32863 10.264 4.2835 10.1562 4.2835H5.28125C5.17351 4.2835 5.07017 4.32863 4.99399 4.40897C4.9178 4.4893 4.875 4.59825 4.875 4.71186V5.56856ZM6.5 2.14174C6.5 2.25534 6.5428 2.3643 6.61899 2.44463C6.69517 2.52496 6.79851 2.57009 6.90625 2.57009H12.5938C12.7015 2.57009 12.8048 2.52496 12.881 2.44463C12.9572 2.3643 13 2.25534 13 2.14174V1.28503C13 1.17143 12.9572 1.06247 12.881 0.98214C12.8048 0.901808 12.7015 0.856679 12.5938 0.856679H6.90625C6.79851 0.856679 6.69517 0.901808 6.61899 0.98214C6.5428 1.06247 6.5 1.17143 6.5 1.28503V2.14174Z" fill="#CAD0D7"/>
</svg>
