<svg width="15" height="12" viewBox="0 0 15 12" fill="none" xmlns="http://www.w3.org/2000/svg">
<path d="M5.69041 0C5.34214 0 5.00812 0.145879 4.76186 0.405546C4.51559 0.665212 4.37724 1.0174 4.37724 1.38462V1.84616H1.31317C0.964897 1.84616 0.630886 1.99204 0.384619 2.2517C0.138352 2.51137 0 2.86355 0 3.23078L0 4.50832L6.66566 6.38217C6.88708 6.44435 7.12008 6.44435 7.3415 6.38217L14.0072 4.50832V3.23078C14.0072 2.86355 13.8688 2.51137 13.6225 2.2517C13.3763 1.99204 13.0423 1.84616 12.694 1.84616H9.62992V1.38462C9.62992 1.0174 9.49157 0.665212 9.24531 0.405546C8.99904 0.145879 8.66503 0 8.31675 0H5.69041ZM5.69041 0.923079H8.31675C8.43284 0.923079 8.54418 0.971706 8.62627 1.05826C8.70836 1.14482 8.75448 1.26221 8.75448 1.38462V1.84616H5.25269V1.38462C5.25269 1.26221 5.2988 1.14482 5.38089 1.05826C5.46298 0.971706 5.57432 0.923079 5.69041 0.923079V0.923079Z" fill="#CAD0D7"/>
<path d="M0 10.6154C0 10.9827 0.138352 11.3348 0.384619 11.5945C0.630886 11.8542 0.964897 12.0001 1.31317 12.0001H12.694C13.0423 12.0001 13.3763 11.8542 13.6225 11.5945C13.8688 11.3348 14.0072 10.9827 14.0072 10.6154V5.40002L7.11651 7.33572C7.04252 7.35656 6.96464 7.35656 6.89065 7.33572L0 5.40002V10.6154Z" fill="#CAD0D7"/>
</svg>
