<svg width="16" height="19" viewBox="0 0 16 19" fill="none" xmlns="http://www.w3.org/2000/svg">
<path d="M10.5293 7.37524C10.3017 7.37524 10.1172 7.55972 10.1172 7.78733V15.5759C10.1172 15.8033 10.3017 15.9879 10.5293 15.9879C10.7569 15.9879 10.9414 15.8033 10.9414 15.5759V7.78733C10.9414 7.55972 10.7569 7.37524 10.5293 7.37524Z" fill="#B5BCCA" stroke="#B5BCCA" stroke-width="0.65"/>
<path d="M5.666 7.37524C5.43838 7.37524 5.25391 7.55972 5.25391 7.78733V15.5759C5.25391 15.8033 5.43838 15.9879 5.666 15.9879C5.89361 15.9879 6.07809 15.8033 6.07809 15.5759V7.78733C6.07809 7.55972 5.89361 7.37524 5.666 7.37524Z" fill="#B5BCCA" stroke="#B5BCCA" stroke-width="0.65"/>
<path d="M2.12255 6.23859V16.3916C2.12255 16.9917 2.3426 17.5553 2.727 17.9596C3.10964 18.3651 3.64213 18.5953 4.19942 18.5963H11.9963C12.5537 18.5953 13.0862 18.3651 13.4687 17.9596C13.8531 17.5553 14.0732 16.9917 14.0732 16.3916V6.23859C14.8373 6.03576 15.3325 5.29754 15.2302 4.51344C15.1279 3.72951 14.46 3.14308 13.6693 3.14292H11.5594V2.62781C11.5618 2.19463 11.3906 1.77868 11.0839 1.47267C10.7773 1.16682 10.3607 0.996513 9.92748 1.00005H6.26824C5.83507 0.996513 5.41847 1.16682 5.11182 1.47267C4.80516 1.77868 4.63389 2.19463 4.6363 2.62781V3.14292H2.52643C1.73573 3.14308 1.06786 3.72951 0.96548 4.51344C0.863262 5.29754 1.35841 6.03576 2.12255 6.23859V6.23859ZM11.9963 17.7721H4.19942C3.49484 17.7721 2.94673 17.1669 2.94673 16.3916V6.2748H13.249V16.3916C13.249 17.1669 12.7009 17.7721 11.9963 17.7721ZM5.46048 2.62781C5.45775 2.41323 5.5421 2.2067 5.69438 2.05523C5.8465 1.90375 6.05351 1.82053 6.26824 1.82423H9.92748C10.1422 1.82053 10.3492 1.90375 10.5013 2.05523C10.6536 2.20654 10.738 2.41323 10.7352 2.62781V3.14292H5.46048V2.62781ZM2.52643 3.9671H13.6693C14.079 3.9671 14.411 4.29919 14.411 4.70886C14.411 5.11854 14.079 5.45062 13.6693 5.45062H2.52643C2.11676 5.45062 1.78467 5.11854 1.78467 4.70886C1.78467 4.29919 2.11676 3.9671 2.52643 3.9671V3.9671Z" fill="#B5BCCA" stroke="#B5BCCA" stroke-width="0.65"/>
<path d="M8.09763 7.37524C7.87002 7.37524 7.68555 7.55972 7.68555 7.78733V15.5759C7.68555 15.8033 7.87002 15.9879 8.09763 15.9879C8.32524 15.9879 8.50972 15.8033 8.50972 15.5759V7.78733C8.50972 7.55972 8.32524 7.37524 8.09763 7.37524Z" fill="#B5BCCA" stroke="#B5BCCA" stroke-width="0.65"/>
</svg>
