<svg width="16" height="20" viewBox="0 0 16 20" fill="none" xmlns="http://www.w3.org/2000/svg">
<path d="M15.8503 4.00419C15.8503 5.05997 15.4984 5.8518 14.8825 6.55565C12.1551 9.37106 9.51561 12.0985 6.78819 14.9139C6.43626 15.2658 5.90837 15.5298 5.46846 15.6178C4.41269 15.7937 3.35691 16.0577 2.30113 16.2336C1.33333 16.4096 0.365537 15.7937 0.101592 14.9139C-0.0743707 14.474 0.0136108 13.9461 0.101592 13.5062C0.277555 12.5384 0.5415 11.4826 0.717463 10.5148C0.805444 10.0749 0.981408 9.72299 1.33333 9.37106C4.06076 6.55565 6.78819 3.74025 9.51562 1.01282C10.8353 -0.394886 13.0349 -0.306905 14.3546 1.1008C14.5306 1.27676 14.7065 1.45273 14.9705 1.71667C15.5863 2.42052 15.8503 3.21236 15.8503 4.00419ZM1.86122 14.298C1.9492 14.298 1.9492 14.298 2.03719 14.298C3.09296 14.1221 4.14874 13.9461 5.20452 13.7701C5.2925 13.7701 5.46847 13.6822 5.55645 13.5942C6.87617 12.2745 8.19589 10.8667 9.51562 9.54703C10.9233 8.13932 12.243 6.73162 13.6507 5.32391C14.2666 4.62006 14.2666 3.82823 13.6507 3.12437C13.4748 2.86043 13.2108 2.68447 13.0349 2.5085C12.419 1.80465 11.3632 1.89263 10.7474 2.5085C8.19589 5.14795 5.64443 7.78739 3.09296 10.4268C2.65306 10.6028 2.47709 10.9547 2.38911 11.3946C2.30113 12.3624 2.03719 13.3302 1.86122 14.298Z" fill="#B5BCCA"/>
<path d="M14.7946 19.313H0.981469C0.45358 19.313 0.0136719 18.8731 0.0136719 18.3452C0.0136719 17.8173 0.45358 17.3774 0.981469 17.3774H14.8825C15.4104 17.3774 15.8503 17.8173 15.8503 18.3452C15.7624 18.8731 15.3225 19.313 14.7946 19.313Z" fill="#B5BCCA"/>
</svg>
